<?xml version="1.0" encoding="utf-8" standalone="no"?>
<!DOCTYPE svg PUBLIC "-//W3C//DTD SVG 1.1//EN"
  "http://www.w3.org/Graphics/SVG/1.1/DTD/svg11.dtd">
<svg xmlns:xlink="http://www.w3.org/1999/xlink" width="360pt" height="360pt" viewBox="0 0 360 360" xmlns="http://www.w3.org/2000/svg" version="1.1">
 <metadata>
  <rdf:RDF xmlns:dc="http://purl.org/dc/elements/1.1/" xmlns:cc="http://creativecommons.org/ns#" xmlns:rdf="http://www.w3.org/1999/02/22-rdf-syntax-ns#">
   <cc:Work>
    <dc:type rdf:resource="http://purl.org/dc/dcmitype/StillImage"/>
    <dc:date>2025-01-03T19:36:19.809088</dc:date>
    <dc:format>image/svg+xml</dc:format>
    <dc:creator>
     <cc:Agent>
      <dc:title>Matplotlib v3.10.0, https://matplotlib.org/</dc:title>
     </cc:Agent>
    </dc:creator>
   </cc:Work>
  </rdf:RDF>
 </metadata>
 <defs>
  <style type="text/css">*{stroke-linejoin: round; stroke-linecap: butt}</style>
 </defs>
 <g id="figure_1">
  <g id="patch_1">
   <path d="M 0 360 
L 360 360 
L 360 0 
L 0 0 
z
" style="fill: #ffffff"/>
  </g>
  <g id="axes_1">
   <g id="PatchCollection_1">
    <path d="M 1873.069307 269.108911 
L 1864.487632 443.792923 
L 1838.825252 616.794633 
L 1796.329311 786.44794 
L 1737.409068 951.118988 
L 1662.631956 1109.221907 
L 1572.718121 1259.234079 
L 1468.533481 1399.710803 
L 1351.081392 1529.299214 
L 1221.492982 1646.751303 
L 1081.016257 1750.935943 
L 931.004085 1840.849778 
L 772.901167 1915.62689 
L 608.230118 1974.547133 
L 438.576812 2017.043074 
L 265.575102 2042.705453 
L 90.891089 2051.287129 
L -83.792923 2042.705453 
L -256.794633 2017.043074 
L -426.44794 1974.547133 
L -591.118988 1915.62689 
L -749.221907 1840.849778 
L -899.234079 1750.935943 
L -1039.710803 1646.751303 
L -1169.299214 1529.299214 
L -1286.751303 1399.710803 
L -1390.935943 1259.234079 
L -1480.849778 1109.221907 
L -1555.62689 951.118988 
L -1614.547133 786.44794 
L -1657.043074 616.794633 
L -1682.705453 443.792923 
L -1691.287129 269.108911 
L -1682.705453 94.424898 
L -1657.043074 -78.576812 
L -1614.547133 -248.230118 
L -1555.62689 -412.901167 
L -1480.849778 -571.004085 
L -1390.935943 -721.016257 
L -1286.751303 -861.492982 
L -1169.299214 -991.081392 
L -1039.710803 -1108.533481 
L -899.234079 -1212.718121 
L -749.221907 -1302.631956 
L -591.118988 -1377.409068 
L -426.44794 -1436.329311 
L -256.794633 -1478.825252 
L -83.792923 -1504.487632 
L 90.891089 -1513.069307 
L 265.575102 -1504.487632 
L 438.576812 -1478.825252 
L 608.230118 -1436.329311 
L 772.901167 -1377.409068 
L 931.004085 -1302.631956 
L 1081.016257 -1212.718121 
L 1221.492982 -1108.533481 
L 1351.081392 -991.081392 
L 1468.533481 -861.492982 
L 1572.718121 -721.016257 
L 1662.631956 -571.004085 
L 1737.409068 -412.901167 
L 1796.329311 -248.230118 
L 1838.825252 -78.576812 
L 1864.487632 94.424898 
L 1873.069307 269.108911 
" clip-path="url(#p5f8e42d3cd)" style="fill: #fffdd0"/>
    <path d="M 1873.069307 90.891089 
L 1864.487632 265.575102 
L 1838.825252 438.576812 
L 1796.329311 608.230118 
L 1737.409068 772.901167 
L 1662.631956 931.004085 
L 1572.718121 1081.016257 
L 1468.533481 1221.492982 
L 1351.081392 1351.081392 
L 1221.492982 1468.533481 
L 1081.016257 1572.718121 
L 931.004085 1662.631956 
L 772.901167 1737.409068 
L 608.230118 1796.329311 
L 438.576812 1838.825252 
L 265.575102 1864.487632 
L 90.891089 1873.069307 
L -83.792923 1864.487632 
L -256.794633 1838.825252 
L -426.44794 1796.329311 
L -591.118988 1737.409068 
L -749.221907 1662.631956 
L -899.234079 1572.718121 
L -1039.710803 1468.533481 
L -1169.299214 1351.081392 
L -1286.751303 1221.492982 
L -1390.935943 1081.016257 
L -1480.849778 931.004085 
L -1555.62689 772.901167 
L -1614.547133 608.230118 
L -1657.043074 438.576812 
L -1682.705453 265.575102 
L -1691.287129 90.891089 
L -1682.705453 -83.792923 
L -1657.043074 -256.794633 
L -1614.547133 -426.44794 
L -1555.62689 -591.118988 
L -1480.849778 -749.221907 
L -1390.935943 -899.234079 
L -1286.751303 -1039.710803 
L -1169.299214 -1169.299214 
L -1039.710803 -1286.751303 
L -899.234079 -1390.935943 
L -749.221907 -1480.849778 
L -591.118988 -1555.62689 
L -426.44794 -1614.547133 
L -256.794633 -1657.043074 
L -83.792923 -1682.705453 
L 90.891089 -1691.287129 
L 265.575102 -1682.705453 
L 438.576812 -1657.043074 
L 608.230118 -1614.547133 
L 772.901167 -1555.62689 
L 931.004085 -1480.849778 
L 1081.016257 -1390.935943 
L 1221.492982 -1286.751303 
L 1351.081392 -1169.299214 
L 1468.533481 -1039.710803 
L 1572.718121 -899.234079 
L 1662.631956 -749.221907 
L 1737.409068 -591.118988 
L 1796.329311 -426.44794 
L 1838.825252 -256.794633 
L 1864.487632 -83.792923 
L 1873.069307 90.891089 
" clip-path="url(#p5f8e42d3cd)" style="fill: #fffdd0"/>
    <path d="M 2051.287129 269.108911 
L 2042.705453 443.792923 
L 2017.043074 616.794633 
L 1974.547133 786.44794 
L 1915.62689 951.118988 
L 1840.849778 1109.221907 
L 1750.935943 1259.234079 
L 1646.751303 1399.710803 
L 1529.299214 1529.299214 
L 1399.710803 1646.751303 
L 1259.234079 1750.935943 
L 1109.221907 1840.849778 
L 951.118988 1915.62689 
L 786.44794 1974.547133 
L 616.794633 2017.043074 
L 443.792923 2042.705453 
L 269.108911 2051.287129 
L 94.424898 2042.705453 
L -78.576812 2017.043074 
L -248.230118 1974.547133 
L -412.901167 1915.62689 
L -571.004085 1840.849778 
L -721.016257 1750.935943 
L -861.492982 1646.751303 
L -991.081392 1529.299214 
L -1108.533481 1399.710803 
L -1212.718121 1259.234079 
L -1302.631956 1109.221907 
L -1377.409068 951.118988 
L -1436.329311 786.44794 
L -1478.825252 616.794633 
L -1504.487632 443.792923 
L -1513.069307 269.108911 
L -1504.487632 94.424898 
L -1478.825252 -78.576812 
L -1436.329311 -248.230118 
L -1377.409068 -412.901167 
L -1302.631956 -571.004085 
L -1212.718121 -721.016257 
L -1108.533481 -861.492982 
L -991.081392 -991.081392 
L -861.492982 -1108.533481 
L -721.016257 -1212.718121 
L -571.004085 -1302.631956 
L -412.901167 -1377.409068 
L -248.230118 -1436.329311 
L -78.576812 -1478.825252 
L 94.424898 -1504.487632 
L 269.108911 -1513.069307 
L 443.792923 -1504.487632 
L 616.794633 -1478.825252 
L 786.44794 -1436.329311 
L 951.118988 -1377.409068 
L 1109.221907 -1302.631956 
L 1259.234079 -1212.718121 
L 1399.710803 -1108.533481 
L 1529.299214 -991.081392 
L 1646.751303 -861.492982 
L 1750.935943 -721.016257 
L 1840.849778 -571.004085 
L 1915.62689 -412.901167 
L 1974.547133 -248.230118 
L 2017.043074 -78.576812 
L 2042.705453 94.424898 
L 2051.287129 269.108911 
" clip-path="url(#p5f8e42d3cd)" style="fill: #fffdd0"/>
    <path d="M 2051.287129 90.891089 
L 2042.705453 265.575102 
L 2017.043074 438.576812 
L 1974.547133 608.230118 
L 1915.62689 772.901167 
L 1840.849778 931.004085 
L 1750.935943 1081.016257 
L 1646.751303 1221.492982 
L 1529.299214 1351.081392 
L 1399.710803 1468.533481 
L 1259.234079 1572.718121 
L 1109.221907 1662.631956 
L 951.118988 1737.409068 
L 786.44794 1796.329311 
L 616.794633 1838.825252 
L 443.792923 1864.487632 
L 269.108911 1873.069307 
L 94.424898 1864.487632 
L -78.576812 1838.825252 
L -248.230118 1796.329311 
L -412.901167 1737.409068 
L -571.004085 1662.631956 
L -721.016257 1572.718121 
L -861.492982 1468.533481 
L -991.081392 1351.081392 
L -1108.533481 1221.492982 
L -1212.718121 1081.016257 
L -1302.631956 931.004085 
L -1377.409068 772.901167 
L -1436.329311 608.230118 
L -1478.825252 438.576812 
L -1504.487632 265.575102 
L -1513.069307 90.891089 
L -1504.487632 -83.792923 
L -1478.825252 -256.794633 
L -1436.329311 -426.44794 
L -1377.409068 -591.118988 
L -1302.631956 -749.221907 
L -1212.718121 -899.234079 
L -1108.533481 -1039.710803 
L -991.081392 -1169.299214 
L -861.492982 -1286.751303 
L -721.016257 -1390.935943 
L -571.004085 -1480.849778 
L -412.901167 -1555.62689 
L -248.230118 -1614.547133 
L -78.576812 -1657.043074 
L 94.424898 -1682.705453 
L 269.108911 -1691.287129 
L 443.792923 -1682.705453 
L 616.794633 -1657.043074 
L 786.44794 -1614.547133 
L 951.118988 -1555.62689 
L 1109.221907 -1480.849778 
L 1259.234079 -1390.935943 
L 1399.710803 -1286.751303 
L 1529.299214 -1169.299214 
L 1646.751303 -1039.710803 
L 1750.935943 -899.234079 
L 1840.849778 -749.221907 
L 1915.62689 -591.118988 
L 1974.547133 -426.44794 
L 2017.043074 -256.794633 
L 2042.705453 -83.792923 
L 2051.287129 90.891089 
" clip-path="url(#p5f8e42d3cd)" style="fill: #fffdd0"/>
   </g>
   <g id="PatchCollection_2">
    <path d="M 180 90.891089 
L 180.429084 82.156888 
L 181.712203 73.506803 
L 183.837 65.024138 
L 186.783012 56.790585 
L 190.521868 48.885439 
L 195.017559 41.384831 
L 200.226791 34.360994 
L 206.099396 27.881574 
L 212.578816 22.00897 
L 219.602653 16.799738 
L 227.103261 12.304046 
L 235.008407 8.56519 
L 243.241959 5.619178 
L 251.724625 3.494381 
L 260.37471 2.211262 
L 269.108911 1.782178 
L 277.843112 2.211262 
L 286.493197 3.494381 
L 294.975862 5.619178 
L 303.209415 8.56519 
L 311.114561 12.304046 
L 318.615169 16.799738 
L 325.639006 22.00897 
L 332.118426 27.881574 
L 337.99103 34.360994 
L 343.200262 41.384831 
L 347.695954 48.885439 
L 351.43481 56.790585 
L 354.380822 65.024138 
L 356.505619 73.506803 
L 357.788738 82.156888 
L 358.217822 90.891089 
L 358.217822 269.108911 
L 357.788738 277.843112 
L 356.505619 286.493197 
L 354.380822 294.975862 
L 351.43481 303.209415 
L 347.695954 311.114561 
L 343.200262 318.615169 
L 337.99103 325.639006 
L 332.118426 332.118426 
L 325.639006 337.99103 
L 318.615169 343.200262 
L 311.114561 347.695954 
L 303.209415 351.43481 
L 294.975862 354.380822 
L 286.493197 356.505619 
L 277.843112 357.788738 
L 269.108911 358.217822 
L 260.37471 357.788738 
L 251.724625 356.505619 
L 243.241959 354.380822 
L 235.008407 351.43481 
L 227.103261 347.695954 
L 219.602653 343.200262 
L 212.578816 337.99103 
L 206.099396 332.118426 
L 200.226791 325.639006 
L 195.017559 318.615169 
L 190.521868 311.114561 
L 186.783012 303.209415 
L 183.837 294.975862 
L 181.712203 286.493197 
L 180.429084 277.843112 
L 180 269.108911 
L 180 90.891089 
" clip-path="url(#p5f8e42d3cd)" style="fill: #0000ff; fill-opacity: 0.5"/>
   </g>
   <g id="PatchCollection_3">
    <path d="M 1.782178 90.891089 
L 2.211262 82.156888 
L 3.494381 73.506803 
L 5.619178 65.024138 
L 8.56519 56.790585 
L 12.304046 48.885439 
L 16.799738 41.384831 
L 22.00897 34.360994 
L 27.881574 27.881574 
L 34.360994 22.00897 
L 41.384831 16.799738 
L 48.885439 12.304046 
L 56.790585 8.56519 
L 65.024138 5.619178 
L 73.506803 3.494381 
L 82.156888 2.211262 
L 90.891089 1.782178 
L 99.62529 2.211262 
L 108.275375 3.494381 
L 116.758041 5.619178 
L 124.991593 8.56519 
L 132.896739 12.304046 
L 140.397347 16.799738 
L 147.421184 22.00897 
L 153.900604 27.881574 
L 159.773209 34.360994 
L 164.982441 41.384831 
L 169.478132 48.885439 
L 173.216988 56.790585 
L 176.163 65.024138 
L 178.287797 73.506803 
L 179.570916 82.156888 
L 180 90.891089 
L 180 269.108911 
L 179.570916 277.843112 
L 178.287797 286.493197 
L 176.163 294.975862 
L 173.216988 303.209415 
L 169.478132 311.114561 
L 164.982441 318.615169 
L 159.773209 325.639006 
L 153.900604 332.118426 
L 147.421184 337.99103 
L 140.397347 343.200262 
L 132.896739 347.695954 
L 124.991593 351.43481 
L 116.758041 354.380822 
L 108.275375 356.505619 
L 99.62529 357.788738 
L 90.891089 358.217822 
L 82.156888 357.788738 
L 73.506803 356.505619 
L 65.024138 354.380822 
L 56.790585 351.43481 
L 48.885439 347.695954 
L 41.384831 343.200262 
L 34.360994 337.99103 
L 27.881574 332.118426 
L 22.00897 325.639006 
L 16.799738 318.615169 
L 12.304046 311.114561 
L 8.56519 303.209415 
L 5.619178 294.975862 
L 3.494381 286.493197 
L 2.211262 277.843112 
L 1.782178 269.108911 
L 1.782178 90.891089 
" clip-path="url(#p5f8e42d3cd)" style="fill: #ff0000; fill-opacity: 0.5"/>
   </g>
   <g id="LineCollection_1">
    <path d="M 1.782178 90.891089 
L 2.211262 82.156888 
L 3.494381 73.506803 
L 5.619178 65.024138 
L 8.56519 56.790585 
L 12.304046 48.885439 
L 16.799738 41.384831 
L 22.00897 34.360994 
L 27.881574 27.881574 
L 34.360994 22.00897 
L 41.384831 16.799738 
L 48.885439 12.304046 
L 56.790585 8.56519 
L 65.024138 5.619178 
L 73.506803 3.494381 
L 82.156888 2.211262 
L 90.891089 1.782178 
L 99.62529 2.211262 
L 108.275375 3.494381 
L 116.758041 5.619178 
L 124.991593 8.56519 
L 132.896739 12.304046 
L 140.397347 16.799738 
L 147.421184 22.00897 
L 153.900604 27.881574 
L 159.773209 34.360994 
L 164.982441 41.384831 
L 169.478132 48.885439 
L 173.216988 56.790585 
L 176.163 65.024138 
L 178.287797 73.506803 
L 179.570916 82.156888 
L 180 90.891089 
L 180 269.108911 
L 179.570916 277.843112 
L 178.287797 286.493197 
L 176.163 294.975862 
L 173.216988 303.209415 
L 169.478132 311.114561 
L 164.982441 318.615169 
L 159.773209 325.639006 
L 153.900604 332.118426 
L 147.421184 337.99103 
L 140.397347 343.200262 
L 132.896739 347.695954 
L 124.991593 351.43481 
L 116.758041 354.380822 
L 108.275375 356.505619 
L 99.62529 357.788738 
L 90.891089 358.217822 
L 82.156888 357.788738 
L 73.506803 356.505619 
L 65.024138 354.380822 
L 56.790585 351.43481 
L 48.885439 347.695954 
L 41.384831 343.200262 
L 34.360994 337.99103 
L 27.881574 332.118426 
L 22.00897 325.639006 
L 16.799738 318.615169 
L 12.304046 311.114561 
L 8.56519 303.209415 
L 5.619178 294.975862 
L 3.494381 286.493197 
L 2.211262 277.843112 
L 1.782178 269.108911 
L 1.782178 90.891089 
" clip-path="url(#p5f8e42d3cd)" style="fill: none; stroke: #000000; stroke-width: 5"/>
    <path d="M 180 90.891089 
L 180.429084 82.156888 
L 181.712203 73.506803 
L 183.837 65.024138 
L 186.783012 56.790585 
L 190.521868 48.885439 
L 195.017559 41.384831 
L 200.226791 34.360994 
L 206.099396 27.881574 
L 212.578816 22.00897 
L 219.602653 16.799738 
L 227.103261 12.304046 
L 235.008407 8.56519 
L 243.241959 5.619178 
L 251.724625 3.494381 
L 260.37471 2.211262 
L 269.108911 1.782178 
L 277.843112 2.211262 
L 286.493197 3.494381 
L 294.975862 5.619178 
L 303.209415 8.56519 
L 311.114561 12.304046 
L 318.615169 16.799738 
L 325.639006 22.00897 
L 332.118426 27.881574 
L 337.99103 34.360994 
L 343.200262 41.384831 
L 347.695954 48.885439 
L 351.43481 56.790585 
L 354.380822 65.024138 
L 356.505619 73.506803 
L 357.788738 82.156888 
L 358.217822 90.891089 
L 358.217822 269.108911 
L 357.788738 277.843112 
L 356.505619 286.493197 
L 354.380822 294.975862 
L 351.43481 303.209415 
L 347.695954 311.114561 
L 343.200262 318.615169 
L 337.99103 325.639006 
L 332.118426 332.118426 
L 325.639006 337.99103 
L 318.615169 343.200262 
L 311.114561 347.695954 
L 303.209415 351.43481 
L 294.975862 354.380822 
L 286.493197 356.505619 
L 277.843112 357.788738 
L 269.108911 358.217822 
L 260.37471 357.788738 
L 251.724625 356.505619 
L 243.241959 354.380822 
L 235.008407 351.43481 
L 227.103261 347.695954 
L 219.602653 343.200262 
L 212.578816 337.99103 
L 206.099396 332.118426 
L 200.226791 325.639006 
L 195.017559 318.615169 
L 190.521868 311.114561 
L 186.783012 303.209415 
L 183.837 294.975862 
L 181.712203 286.493197 
L 180.429084 277.843112 
L 180 269.108911 
L 180 90.891089 
" clip-path="url(#p5f8e42d3cd)" style="fill: none; stroke: #000000; stroke-width: 5"/>
   </g>
   <g id="PathCollection_1">
    <defs>
     <path id="mc395680a64" d="M 0 3 
C 0.795609 3 1.55874 2.683901 2.12132 2.12132 
C 2.683901 1.55874 3 0.795609 3 0 
C 3 -0.795609 2.683901 -1.55874 2.12132 -2.12132 
C 1.55874 -2.683901 0.795609 -3 0 -3 
C -0.795609 -3 -1.55874 -2.683901 -2.12132 -2.12132 
C -2.683901 -1.55874 -3 -0.795609 -3 0 
C -3 0.795609 -2.683901 1.55874 -2.12132 2.12132 
C -1.55874 2.683901 -0.795609 3 0 3 
z
" style="stroke: #ff0000"/>
    </defs>
    <g clip-path="url(#p5f8e42d3cd)">
     <use xlink:href="#mc395680a64" x="90.891089" y="269.108911" style="fill: #ff0000; stroke: #ff0000"/>
     <use xlink:href="#mc395680a64" x="90.891089" y="90.891089" style="fill: #ff0000; stroke: #ff0000"/>
    </g>
   </g>
   <g id="PathCollection_2">
    <defs>
     <path id="md63efadbc9" d="M 0 3 
C 0.795609 3 1.55874 2.683901 2.12132 2.12132 
C 2.683901 1.55874 3 0.795609 3 0 
C 3 -0.795609 2.683901 -1.55874 2.12132 -2.12132 
C 1.55874 -2.683901 0.795609 -3 0 -3 
C -0.795609 -3 -1.55874 -2.683901 -2.12132 -2.12132 
C -2.683901 -1.55874 -3 -0.795609 -3 0 
C -3 0.795609 -2.683901 1.55874 -2.12132 2.12132 
C -1.55874 2.683901 -0.795609 3 0 3 
z
" style="stroke: #0000ff"/>
    </defs>
    <g clip-path="url(#p5f8e42d3cd)">
     <use xlink:href="#md63efadbc9" x="269.108911" y="269.108911" style="fill: #0000ff; stroke: #0000ff"/>
     <use xlink:href="#md63efadbc9" x="269.108911" y="90.891089" style="fill: #0000ff; stroke: #0000ff"/>
    </g>
   </g>
  </g>
 </g>
 <defs>
  <clipPath id="p5f8e42d3cd">
   <rect x="0" y="0" width="360" height="360"/>
  </clipPath>
 </defs>
</svg>
