<?xml version="1.0" encoding="utf-8" standalone="no"?>
<!DOCTYPE svg PUBLIC "-//W3C//DTD SVG 1.1//EN"
  "http://www.w3.org/Graphics/SVG/1.1/DTD/svg11.dtd">
<svg xmlns:xlink="http://www.w3.org/1999/xlink" width="360pt" height="360pt" viewBox="0 0 360 360" xmlns="http://www.w3.org/2000/svg" version="1.1">
 <metadata>
  <rdf:RDF xmlns:dc="http://purl.org/dc/elements/1.1/" xmlns:cc="http://creativecommons.org/ns#" xmlns:rdf="http://www.w3.org/1999/02/22-rdf-syntax-ns#">
   <cc:Work>
    <dc:type rdf:resource="http://purl.org/dc/dcmitype/StillImage"/>
    <dc:date>2025-01-03T19:34:59.419906</dc:date>
    <dc:format>image/svg+xml</dc:format>
    <dc:creator>
     <cc:Agent>
      <dc:title>Matplotlib v3.10.0, https://matplotlib.org/</dc:title>
     </cc:Agent>
    </dc:creator>
   </cc:Work>
  </rdf:RDF>
 </metadata>
 <defs>
  <style type="text/css">*{stroke-linejoin: round; stroke-linecap: butt}</style>
 </defs>
 <g id="figure_1">
  <g id="patch_1">
   <path d="M 0 360 
L 360 360 
L 360 0 
L 0 0 
z
" style="fill: #ffffff"/>
  </g>
  <g id="axes_1">
   <g id="PatchCollection_1">
    <path d="M 1808.571429 265.714286 
L 1800.316674 433.743669 
L 1775.631909 600.154838 
L 1734.754861 763.345161 
L 1678.079199 921.743027 
L 1606.150739 1073.822977 
L 1519.662193 1218.120399 
L 1419.446491 1353.24563 
L 1306.468768 1477.897339 
L 1181.817059 1590.875063 
L 1046.691828 1691.090764 
L 902.394406 1777.57931 
L 750.314455 1849.50777 
L 591.91659 1906.183433 
L 428.726266 1947.060481 
L 262.315098 1971.745246 
L 94.285714 1980 
L -73.743669 1971.745246 
L -240.154838 1947.060481 
L -403.345161 1906.183433 
L -561.743027 1849.50777 
L -713.822977 1777.57931 
L -858.120399 1691.090764 
L -993.24563 1590.875063 
L -1117.897339 1477.897339 
L -1230.875063 1353.24563 
L -1331.090764 1218.120399 
L -1417.57931 1073.822977 
L -1489.50777 921.743027 
L -1546.183433 763.345161 
L -1587.060481 600.154838 
L -1611.745246 433.743669 
L -1620 265.714286 
L -1611.745246 97.684902 
L -1587.060481 -68.726266 
L -1546.183433 -231.91659 
L -1489.50777 -390.314455 
L -1417.57931 -542.394406 
L -1331.090764 -686.691828 
L -1230.875063 -821.817059 
L -1117.897339 -946.468768 
L -993.24563 -1059.446491 
L -858.120399 -1159.662193 
L -713.822977 -1246.150739 
L -561.743027 -1318.079199 
L -403.345161 -1374.754861 
L -240.154838 -1415.631909 
L -73.743669 -1440.316674 
L 94.285714 -1448.571429 
L 262.315098 -1440.316674 
L 428.726266 -1415.631909 
L 591.91659 -1374.754861 
L 750.314455 -1318.079199 
L 902.394406 -1246.150739 
L 1046.691828 -1159.662193 
L 1181.817059 -1059.446491 
L 1306.468768 -946.468768 
L 1419.446491 -821.817059 
L 1519.662193 -686.691828 
L 1606.150739 -542.394406 
L 1678.079199 -390.314455 
L 1734.754861 -231.91659 
L 1775.631909 -68.726266 
L 1800.316674 97.684902 
L 1808.571429 265.714286 
" clip-path="url(#pe264b70f7a)" style="fill: #fffdd0"/>
    <path d="M 1808.571429 94.285714 
L 1800.316674 262.315098 
L 1775.631909 428.726266 
L 1734.754861 591.91659 
L 1678.079199 750.314455 
L 1606.150739 902.394406 
L 1519.662193 1046.691828 
L 1419.446491 1181.817059 
L 1306.468768 1306.468768 
L 1181.817059 1419.446491 
L 1046.691828 1519.662193 
L 902.394406 1606.150739 
L 750.314455 1678.079199 
L 591.91659 1734.754861 
L 428.726266 1775.631909 
L 262.315098 1800.316674 
L 94.285714 1808.571429 
L -73.743669 1800.316674 
L -240.154838 1775.631909 
L -403.345161 1734.754861 
L -561.743027 1678.079199 
L -713.822977 1606.150739 
L -858.120399 1519.662193 
L -993.24563 1419.446491 
L -1117.897339 1306.468768 
L -1230.875063 1181.817059 
L -1331.090764 1046.691828 
L -1417.57931 902.394406 
L -1489.50777 750.314455 
L -1546.183433 591.91659 
L -1587.060481 428.726266 
L -1611.745246 262.315098 
L -1620 94.285714 
L -1611.745246 -73.743669 
L -1587.060481 -240.154838 
L -1546.183433 -403.345161 
L -1489.50777 -561.743027 
L -1417.57931 -713.822977 
L -1331.090764 -858.120399 
L -1230.875063 -993.24563 
L -1117.897339 -1117.897339 
L -993.24563 -1230.875063 
L -858.120399 -1331.090764 
L -713.822977 -1417.57931 
L -561.743027 -1489.50777 
L -403.345161 -1546.183433 
L -240.154838 -1587.060481 
L -73.743669 -1611.745246 
L 94.285714 -1620 
L 262.315098 -1611.745246 
L 428.726266 -1587.060481 
L 591.91659 -1546.183433 
L 750.314455 -1489.50777 
L 902.394406 -1417.57931 
L 1046.691828 -1331.090764 
L 1181.817059 -1230.875063 
L 1306.468768 -1117.897339 
L 1419.446491 -993.24563 
L 1519.662193 -858.120399 
L 1606.150739 -713.822977 
L 1678.079199 -561.743027 
L 1734.754861 -403.345161 
L 1775.631909 -240.154838 
L 1800.316674 -73.743669 
L 1808.571429 94.285714 
" clip-path="url(#pe264b70f7a)" style="fill: #fffdd0"/>
    <path d="M 1980 265.714286 
L 1971.745246 433.743669 
L 1947.060481 600.154838 
L 1906.183433 763.345161 
L 1849.50777 921.743027 
L 1777.57931 1073.822977 
L 1691.090764 1218.120399 
L 1590.875063 1353.24563 
L 1477.897339 1477.897339 
L 1353.24563 1590.875063 
L 1218.120399 1691.090764 
L 1073.822977 1777.57931 
L 921.743027 1849.50777 
L 763.345161 1906.183433 
L 600.154838 1947.060481 
L 433.743669 1971.745246 
L 265.714286 1980 
L 97.684902 1971.745246 
L -68.726266 1947.060481 
L -231.91659 1906.183433 
L -390.314455 1849.50777 
L -542.394406 1777.57931 
L -686.691828 1691.090764 
L -821.817059 1590.875063 
L -946.468768 1477.897339 
L -1059.446491 1353.24563 
L -1159.662193 1218.120399 
L -1246.150739 1073.822977 
L -1318.079199 921.743027 
L -1374.754861 763.345161 
L -1415.631909 600.154838 
L -1440.316674 433.743669 
L -1448.571429 265.714286 
L -1440.316674 97.684902 
L -1415.631909 -68.726266 
L -1374.754861 -231.91659 
L -1318.079199 -390.314455 
L -1246.150739 -542.394406 
L -1159.662193 -686.691828 
L -1059.446491 -821.817059 
L -946.468768 -946.468768 
L -821.817059 -1059.446491 
L -686.691828 -1159.662193 
L -542.394406 -1246.150739 
L -390.314455 -1318.079199 
L -231.91659 -1374.754861 
L -68.726266 -1415.631909 
L 97.684902 -1440.316674 
L 265.714286 -1448.571429 
L 433.743669 -1440.316674 
L 600.154838 -1415.631909 
L 763.345161 -1374.754861 
L 921.743027 -1318.079199 
L 1073.822977 -1246.150739 
L 1218.120399 -1159.662193 
L 1353.24563 -1059.446491 
L 1477.897339 -946.468768 
L 1590.875063 -821.817059 
L 1691.090764 -686.691828 
L 1777.57931 -542.394406 
L 1849.50777 -390.314455 
L 1906.183433 -231.91659 
L 1947.060481 -68.726266 
L 1971.745246 97.684902 
L 1980 265.714286 
" clip-path="url(#pe264b70f7a)" style="fill: #fffdd0"/>
    <path d="M 1980 94.285714 
L 1971.745246 262.315098 
L 1947.060481 428.726266 
L 1906.183433 591.91659 
L 1849.50777 750.314455 
L 1777.57931 902.394406 
L 1691.090764 1046.691828 
L 1590.875063 1181.817059 
L 1477.897339 1306.468768 
L 1353.24563 1419.446491 
L 1218.120399 1519.662193 
L 1073.822977 1606.150739 
L 921.743027 1678.079199 
L 763.345161 1734.754861 
L 600.154838 1775.631909 
L 433.743669 1800.316674 
L 265.714286 1808.571429 
L 97.684902 1800.316674 
L -68.726266 1775.631909 
L -231.91659 1734.754861 
L -390.314455 1678.079199 
L -542.394406 1606.150739 
L -686.691828 1519.662193 
L -821.817059 1419.446491 
L -946.468768 1306.468768 
L -1059.446491 1181.817059 
L -1159.662193 1046.691828 
L -1246.150739 902.394406 
L -1318.079199 750.314455 
L -1374.754861 591.91659 
L -1415.631909 428.726266 
L -1440.316674 262.315098 
L -1448.571429 94.285714 
L -1440.316674 -73.743669 
L -1415.631909 -240.154838 
L -1374.754861 -403.345161 
L -1318.079199 -561.743027 
L -1246.150739 -713.822977 
L -1159.662193 -858.120399 
L -1059.446491 -993.24563 
L -946.468768 -1117.897339 
L -821.817059 -1230.875063 
L -686.691828 -1331.090764 
L -542.394406 -1417.57931 
L -390.314455 -1489.50777 
L -231.91659 -1546.183433 
L -68.726266 -1587.060481 
L 97.684902 -1611.745246 
L 265.714286 -1620 
L 433.743669 -1611.745246 
L 600.154838 -1587.060481 
L 763.345161 -1546.183433 
L 921.743027 -1489.50777 
L 1073.822977 -1417.57931 
L 1218.120399 -1331.090764 
L 1353.24563 -1230.875063 
L 1477.897339 -1117.897339 
L 1590.875063 -993.24563 
L 1691.090764 -858.120399 
L 1777.57931 -713.822977 
L 1849.50777 -561.743027 
L 1906.183433 -403.345161 
L 1947.060481 -240.154838 
L 1971.745246 -73.743669 
L 1980 94.285714 
" clip-path="url(#pe264b70f7a)" style="fill: #fffdd0"/>
   </g>
   <g id="PathCollection_1">
    <defs>
     <path id="mefb3a6d580" d="M 0 3 
C 0.795609 3 1.55874 2.683901 2.12132 2.12132 
C 2.683901 1.55874 3 0.795609 3 0 
C 3 -0.795609 2.683901 -1.55874 2.12132 -2.12132 
C 1.55874 -2.683901 0.795609 -3 0 -3 
C -0.795609 -3 -1.55874 -2.683901 -2.12132 -2.12132 
C -2.683901 -1.55874 -3 -0.795609 -3 0 
C -3 0.795609 -2.683901 1.55874 -2.12132 2.12132 
C -1.55874 2.683901 -0.795609 3 0 3 
z
" style="stroke: #ff0000"/>
    </defs>
    <g clip-path="url(#pe264b70f7a)">
     <use xlink:href="#mefb3a6d580" x="94.285714" y="265.714286" style="fill: #ff0000; stroke: #ff0000"/>
     <use xlink:href="#mefb3a6d580" x="94.285714" y="94.285714" style="fill: #ff0000; stroke: #ff0000"/>
    </g>
   </g>
   <g id="PathCollection_2">
    <defs>
     <path id="m7d84e5656a" d="M 0 3 
C 0.795609 3 1.55874 2.683901 2.12132 2.12132 
C 2.683901 1.55874 3 0.795609 3 0 
C 3 -0.795609 2.683901 -1.55874 2.12132 -2.12132 
C 1.55874 -2.683901 0.795609 -3 0 -3 
C -0.795609 -3 -1.55874 -2.683901 -2.12132 -2.12132 
C -2.683901 -1.55874 -3 -0.795609 -3 0 
C -3 0.795609 -2.683901 1.55874 -2.12132 2.12132 
C -1.55874 2.683901 -0.795609 3 0 3 
z
" style="stroke: #0000ff"/>
    </defs>
    <g clip-path="url(#pe264b70f7a)">
     <use xlink:href="#m7d84e5656a" x="265.714286" y="265.714286" style="fill: #0000ff; stroke: #0000ff"/>
     <use xlink:href="#m7d84e5656a" x="265.714286" y="94.285714" style="fill: #0000ff; stroke: #0000ff"/>
    </g>
   </g>
  </g>
 </g>
 <defs>
  <clipPath id="pe264b70f7a">
   <rect x="0" y="0" width="360" height="360"/>
  </clipPath>
 </defs>
</svg>
