<?xml version="1.0" encoding="utf-8" standalone="no"?>
<!DOCTYPE svg PUBLIC "-//W3C//DTD SVG 1.1//EN"
  "http://www.w3.org/Graphics/SVG/1.1/DTD/svg11.dtd">
<svg xmlns:xlink="http://www.w3.org/1999/xlink" width="360pt" height="360pt" viewBox="0 0 360 360" xmlns="http://www.w3.org/2000/svg" version="1.1">
 <metadata>
  <rdf:RDF xmlns:dc="http://purl.org/dc/elements/1.1/" xmlns:cc="http://creativecommons.org/ns#" xmlns:rdf="http://www.w3.org/1999/02/22-rdf-syntax-ns#">
   <cc:Work>
    <dc:type rdf:resource="http://purl.org/dc/dcmitype/StillImage"/>
    <dc:date>2025-01-03T19:37:15.724370</dc:date>
    <dc:format>image/svg+xml</dc:format>
    <dc:creator>
     <cc:Agent>
      <dc:title>Matplotlib v3.10.0, https://matplotlib.org/</dc:title>
     </cc:Agent>
    </dc:creator>
   </cc:Work>
  </rdf:RDF>
 </metadata>
 <defs>
  <style type="text/css">*{stroke-linejoin: round; stroke-linecap: butt}</style>
 </defs>
 <g id="figure_1">
  <g id="patch_1">
   <path d="M 0 360 
L 360 360 
L 360 0 
L 0 0 
z
" style="fill: #ffffff"/>
  </g>
  <g id="axes_1">
   <g id="PatchCollection_1">
    <path d="M 1856.470588 268.235294 
L 1847.973047 441.206718 
L 1822.56226 612.512333 
L 1780.482945 780.502372 
L 1722.140351 943.558998 
L 1648.096349 1100.111889 
L 1559.064022 1248.653352 
L 1455.9008 1387.752854 
L 1339.600202 1516.07079 
L 1211.282266 1632.371388 
L 1072.182764 1735.53461 
L 923.6413 1824.566937 
L 767.08841 1898.61094 
L 604.031783 1956.953534 
L 436.041745 1999.032848 
L 264.73613 2024.443635 
L 91.764706 2032.941176 
L -81.206718 2024.443635 
L -252.512333 1999.032848 
L -420.502372 1956.953534 
L -583.558998 1898.61094 
L -740.111889 1824.566937 
L -888.653352 1735.53461 
L -1027.752854 1632.371388 
L -1156.07079 1516.07079 
L -1272.371388 1387.752854 
L -1375.53461 1248.653352 
L -1464.566937 1100.111889 
L -1538.61094 943.558998 
L -1596.953534 780.502372 
L -1639.032848 612.512333 
L -1664.443635 441.206718 
L -1672.941176 268.235294 
L -1664.443635 95.26387 
L -1639.032848 -76.041745 
L -1596.953534 -244.031783 
L -1538.61094 -407.08841 
L -1464.566937 -563.6413 
L -1375.53461 -712.182764 
L -1272.371388 -851.282266 
L -1156.07079 -979.600202 
L -1027.752854 -1095.9008 
L -888.653352 -1199.064022 
L -740.111889 -1288.096349 
L -583.558998 -1362.140351 
L -420.502372 -1420.482945 
L -252.512333 -1462.56226 
L -81.206718 -1487.973047 
L 91.764706 -1496.470588 
L 264.73613 -1487.973047 
L 436.041745 -1462.56226 
L 604.031783 -1420.482945 
L 767.08841 -1362.140351 
L 923.6413 -1288.096349 
L 1072.182764 -1199.064022 
L 1211.282266 -1095.9008 
L 1339.600202 -979.600202 
L 1455.9008 -851.282266 
L 1559.064022 -712.182764 
L 1648.096349 -563.6413 
L 1722.140351 -407.08841 
L 1780.482945 -244.031783 
L 1822.56226 -76.041745 
L 1847.973047 95.26387 
L 1856.470588 268.235294 
" clip-path="url(#pa319c7caba)" style="fill: #fffdd0"/>
    <path d="M 1856.470588 91.764706 
L 1847.973047 264.73613 
L 1822.56226 436.041745 
L 1780.482945 604.031783 
L 1722.140351 767.08841 
L 1648.096349 923.6413 
L 1559.064022 1072.182764 
L 1455.9008 1211.282266 
L 1339.600202 1339.600202 
L 1211.282266 1455.9008 
L 1072.182764 1559.064022 
L 923.6413 1648.096349 
L 767.08841 1722.140351 
L 604.031783 1780.482945 
L 436.041745 1822.56226 
L 264.73613 1847.973047 
L 91.764706 1856.470588 
L -81.206718 1847.973047 
L -252.512333 1822.56226 
L -420.502372 1780.482945 
L -583.558998 1722.140351 
L -740.111889 1648.096349 
L -888.653352 1559.064022 
L -1027.752854 1455.9008 
L -1156.07079 1339.600202 
L -1272.371388 1211.282266 
L -1375.53461 1072.182764 
L -1464.566937 923.6413 
L -1538.61094 767.08841 
L -1596.953534 604.031783 
L -1639.032848 436.041745 
L -1664.443635 264.73613 
L -1672.941176 91.764706 
L -1664.443635 -81.206718 
L -1639.032848 -252.512333 
L -1596.953534 -420.502372 
L -1538.61094 -583.558998 
L -1464.566937 -740.111889 
L -1375.53461 -888.653352 
L -1272.371388 -1027.752854 
L -1156.07079 -1156.07079 
L -1027.752854 -1272.371388 
L -888.653352 -1375.53461 
L -740.111889 -1464.566937 
L -583.558998 -1538.61094 
L -420.502372 -1596.953534 
L -252.512333 -1639.032848 
L -81.206718 -1664.443635 
L 91.764706 -1672.941176 
L 264.73613 -1664.443635 
L 436.041745 -1639.032848 
L 604.031783 -1596.953534 
L 767.08841 -1538.61094 
L 923.6413 -1464.566937 
L 1072.182764 -1375.53461 
L 1211.282266 -1272.371388 
L 1339.600202 -1156.07079 
L 1455.9008 -1027.752854 
L 1559.064022 -888.653352 
L 1648.096349 -740.111889 
L 1722.140351 -583.558998 
L 1780.482945 -420.502372 
L 1822.56226 -252.512333 
L 1847.973047 -81.206718 
L 1856.470588 91.764706 
" clip-path="url(#pa319c7caba)" style="fill: #fffdd0"/>
    <path d="M 2032.941176 268.235294 
L 2024.443635 441.206718 
L 1999.032848 612.512333 
L 1956.953534 780.502372 
L 1898.61094 943.558998 
L 1824.566937 1100.111889 
L 1735.53461 1248.653352 
L 1632.371388 1387.752854 
L 1516.07079 1516.07079 
L 1387.752854 1632.371388 
L 1248.653352 1735.53461 
L 1100.111889 1824.566937 
L 943.558998 1898.61094 
L 780.502372 1956.953534 
L 612.512333 1999.032848 
L 441.206718 2024.443635 
L 268.235294 2032.941176 
L 95.26387 2024.443635 
L -76.041745 1999.032848 
L -244.031783 1956.953534 
L -407.08841 1898.61094 
L -563.6413 1824.566937 
L -712.182764 1735.53461 
L -851.282266 1632.371388 
L -979.600202 1516.07079 
L -1095.9008 1387.752854 
L -1199.064022 1248.653352 
L -1288.096349 1100.111889 
L -1362.140351 943.558998 
L -1420.482945 780.502372 
L -1462.56226 612.512333 
L -1487.973047 441.206718 
L -1496.470588 268.235294 
L -1487.973047 95.26387 
L -1462.56226 -76.041745 
L -1420.482945 -244.031783 
L -1362.140351 -407.08841 
L -1288.096349 -563.6413 
L -1199.064022 -712.182764 
L -1095.9008 -851.282266 
L -979.600202 -979.600202 
L -851.282266 -1095.9008 
L -712.182764 -1199.064022 
L -563.6413 -1288.096349 
L -407.08841 -1362.140351 
L -244.031783 -1420.482945 
L -76.041745 -1462.56226 
L 95.26387 -1487.973047 
L 268.235294 -1496.470588 
L 441.206718 -1487.973047 
L 612.512333 -1462.56226 
L 780.502372 -1420.482945 
L 943.558998 -1362.140351 
L 1100.111889 -1288.096349 
L 1248.653352 -1199.064022 
L 1387.752854 -1095.9008 
L 1516.07079 -979.600202 
L 1632.371388 -851.282266 
L 1735.53461 -712.182764 
L 1824.566937 -563.6413 
L 1898.61094 -407.08841 
L 1956.953534 -244.031783 
L 1999.032848 -76.041745 
L 2024.443635 95.26387 
L 2032.941176 268.235294 
" clip-path="url(#pa319c7caba)" style="fill: #fffdd0"/>
    <path d="M 2032.941176 91.764706 
L 2024.443635 264.73613 
L 1999.032848 436.041745 
L 1956.953534 604.031783 
L 1898.61094 767.08841 
L 1824.566937 923.6413 
L 1735.53461 1072.182764 
L 1632.371388 1211.282266 
L 1516.07079 1339.600202 
L 1387.752854 1455.9008 
L 1248.653352 1559.064022 
L 1100.111889 1648.096349 
L 943.558998 1722.140351 
L 780.502372 1780.482945 
L 612.512333 1822.56226 
L 441.206718 1847.973047 
L 268.235294 1856.470588 
L 95.26387 1847.973047 
L -76.041745 1822.56226 
L -244.031783 1780.482945 
L -407.08841 1722.140351 
L -563.6413 1648.096349 
L -712.182764 1559.064022 
L -851.282266 1455.9008 
L -979.600202 1339.600202 
L -1095.9008 1211.282266 
L -1199.064022 1072.182764 
L -1288.096349 923.6413 
L -1362.140351 767.08841 
L -1420.482945 604.031783 
L -1462.56226 436.041745 
L -1487.973047 264.73613 
L -1496.470588 91.764706 
L -1487.973047 -81.206718 
L -1462.56226 -252.512333 
L -1420.482945 -420.502372 
L -1362.140351 -583.558998 
L -1288.096349 -740.111889 
L -1199.064022 -888.653352 
L -1095.9008 -1027.752854 
L -979.600202 -1156.07079 
L -851.282266 -1272.371388 
L -712.182764 -1375.53461 
L -563.6413 -1464.566937 
L -407.08841 -1538.61094 
L -244.031783 -1596.953534 
L -76.041745 -1639.032848 
L 95.26387 -1664.443635 
L 268.235294 -1672.941176 
L 441.206718 -1664.443635 
L 612.512333 -1639.032848 
L 780.502372 -1596.953534 
L 943.558998 -1538.61094 
L 1100.111889 -1464.566937 
L 1248.653352 -1375.53461 
L 1387.752854 -1272.371388 
L 1516.07079 -1156.07079 
L 1632.371388 -1027.752854 
L 1735.53461 -888.653352 
L 1824.566937 -740.111889 
L 1898.61094 -583.558998 
L 1956.953534 -420.502372 
L 1999.032848 -252.512333 
L 2024.443635 -81.206718 
L 2032.941176 91.764706 
" clip-path="url(#pa319c7caba)" style="fill: #fffdd0"/>
   </g>
   <g id="PatchCollection_2">
    <path d="M 268.235294 180 
L 276.883865 180.424877 
L 285.449146 181.695416 
L 293.848648 183.799382 
L 302.001479 186.716512 
L 309.829124 190.418712 
L 317.256197 194.870328 
L 324.211172 200.028489 
L 330.627069 205.843519 
L 336.442099 212.259416 
L 341.60026 219.214391 
L 346.051876 226.641464 
L 349.754076 234.469109 
L 352.671206 242.62194 
L 354.775172 251.021442 
L 356.045711 259.586723 
L 356.470588 268.235294 
L 356.045711 276.883865 
L 354.775172 285.449146 
L 352.671206 293.848648 
L 349.754076 302.001479 
L 346.051876 309.829124 
L 341.60026 317.256197 
L 336.442099 324.211172 
L 330.627069 330.627069 
L 324.211172 336.442099 
L 317.256197 341.60026 
L 309.829124 346.051876 
L 302.001479 349.754076 
L 293.848648 352.671206 
L 285.449146 354.775172 
L 276.883865 356.045711 
L 268.235294 356.470588 
L 91.764706 356.470588 
L 83.116135 356.045711 
L 74.550854 354.775172 
L 66.151352 352.671206 
L 57.998521 349.754076 
L 50.170876 346.051876 
L 42.743803 341.60026 
L 35.788828 336.442099 
L 29.372931 330.627069 
L 23.557901 324.211172 
L 18.39974 317.256197 
L 13.948124 309.829124 
L 10.245924 302.001479 
L 7.328794 293.848648 
L 5.224828 285.449146 
L 3.954289 276.883865 
L 3.529412 268.235294 
L 3.954289 259.586723 
L 5.224828 251.021442 
L 7.328794 242.62194 
L 10.245924 234.469109 
L 13.948124 226.641464 
L 18.39974 219.214391 
L 23.557901 212.259416 
L 29.372931 205.843519 
L 35.788828 200.028489 
L 42.743803 194.870328 
L 50.170876 190.418712 
L 57.998521 186.716512 
L 66.151352 183.799382 
L 74.550854 181.695416 
L 83.116135 180.424877 
L 91.764706 180 
L 268.235294 180 
" clip-path="url(#pa319c7caba)" style="fill: #800080; fill-opacity: 0.5"/>
   </g>
   <g id="PatchCollection_3">
    <path d="M 268.235294 3.529412 
L 276.883865 3.954289 
L 285.449146 5.224828 
L 293.848648 7.328794 
L 302.001479 10.245924 
L 309.829124 13.948124 
L 317.256197 18.39974 
L 324.211172 23.557901 
L 330.627069 29.372931 
L 336.442099 35.788828 
L 341.60026 42.743803 
L 346.051876 50.170876 
L 349.754076 57.998521 
L 352.671206 66.151352 
L 354.775172 74.550854 
L 356.045711 83.116135 
L 356.470588 91.764706 
L 356.045711 100.413277 
L 354.775172 108.978558 
L 352.671206 117.37806 
L 349.754076 125.530891 
L 346.051876 133.358536 
L 341.60026 140.785609 
L 336.442099 147.740584 
L 330.627069 154.156481 
L 324.211172 159.971511 
L 317.256197 165.129672 
L 309.829124 169.581288 
L 302.001479 173.283488 
L 293.848648 176.200618 
L 285.449146 178.304584 
L 276.883865 179.575123 
L 268.235294 180 
L 91.764706 180 
L 83.116135 179.575123 
L 74.550854 178.304584 
L 66.151352 176.200618 
L 57.998521 173.283488 
L 50.170876 169.581288 
L 42.743803 165.129672 
L 35.788828 159.971511 
L 29.372931 154.156481 
L 23.557901 147.740584 
L 18.39974 140.785609 
L 13.948124 133.358536 
L 10.245924 125.530891 
L 7.328794 117.37806 
L 5.224828 108.978558 
L 3.954289 100.413277 
L 3.529412 91.764706 
L 3.954289 83.116135 
L 5.224828 74.550854 
L 7.328794 66.151352 
L 10.245924 57.998521 
L 13.948124 50.170876 
L 18.39974 42.743803 
L 23.557901 35.788828 
L 29.372931 29.372931 
L 35.788828 23.557901 
L 42.743803 18.39974 
L 50.170876 13.948124 
L 57.998521 10.245924 
L 66.151352 7.328794 
L 74.550854 5.224828 
L 83.116135 3.954289 
L 91.764706 3.529412 
L 268.235294 3.529412 
" clip-path="url(#pa319c7caba)" style="fill: #800080; fill-opacity: 0.5"/>
   </g>
   <g id="PathCollection_1">
    <defs>
     <path id="mb86dcf57d6" d="M 0 3 
C 0.795609 3 1.55874 2.683901 2.12132 2.12132 
C 2.683901 1.55874 3 0.795609 3 0 
C 3 -0.795609 2.683901 -1.55874 2.12132 -2.12132 
C 1.55874 -2.683901 0.795609 -3 0 -3 
C -0.795609 -3 -1.55874 -2.683901 -2.12132 -2.12132 
C -2.683901 -1.55874 -3 -0.795609 -3 0 
C -3 0.795609 -2.683901 1.55874 -2.12132 2.12132 
C -1.55874 2.683901 -0.795609 3 0 3 
z
" style="stroke: #ff0000"/>
    </defs>
    <g clip-path="url(#pa319c7caba)">
     <use xlink:href="#mb86dcf57d6" x="91.764706" y="268.235294" style="fill: #ff0000; stroke: #ff0000"/>
     <use xlink:href="#mb86dcf57d6" x="91.764706" y="91.764706" style="fill: #ff0000; stroke: #ff0000"/>
    </g>
   </g>
   <g id="LineCollection_1">
    <path d="M 268.235294 180 
L 276.883865 180.424877 
L 285.449146 181.695416 
L 293.848648 183.799382 
L 302.001479 186.716512 
L 309.829124 190.418712 
L 317.256197 194.870328 
L 324.211172 200.028489 
L 330.627069 205.843519 
L 336.442099 212.259416 
L 341.60026 219.214391 
L 346.051876 226.641464 
L 349.754076 234.469109 
L 352.671206 242.62194 
L 354.775172 251.021442 
L 356.045711 259.586723 
L 356.470588 268.235294 
L 356.045711 276.883865 
L 354.775172 285.449146 
L 352.671206 293.848648 
L 349.754076 302.001479 
L 346.051876 309.829124 
L 341.60026 317.256197 
L 336.442099 324.211172 
L 330.627069 330.627069 
L 324.211172 336.442099 
L 317.256197 341.60026 
L 309.829124 346.051876 
L 302.001479 349.754076 
L 293.848648 352.671206 
L 285.449146 354.775172 
L 276.883865 356.045711 
L 268.235294 356.470588 
L 91.764706 356.470588 
L 83.116135 356.045711 
L 74.550854 354.775172 
L 66.151352 352.671206 
L 57.998521 349.754076 
L 50.170876 346.051876 
L 42.743803 341.60026 
L 35.788828 336.442099 
L 29.372931 330.627069 
L 23.557901 324.211172 
L 18.39974 317.256197 
L 13.948124 309.829124 
L 10.245924 302.001479 
L 7.328794 293.848648 
L 5.224828 285.449146 
L 3.954289 276.883865 
L 3.529412 268.235294 
L 3.954289 259.586723 
L 5.224828 251.021442 
L 7.328794 242.62194 
L 10.245924 234.469109 
L 13.948124 226.641464 
L 18.39974 219.214391 
L 23.557901 212.259416 
L 29.372931 205.843519 
L 35.788828 200.028489 
L 42.743803 194.870328 
L 50.170876 190.418712 
L 57.998521 186.716512 
L 66.151352 183.799382 
L 74.550854 181.695416 
L 83.116135 180.424877 
L 91.764706 180 
L 268.235294 180 
" clip-path="url(#pa319c7caba)" style="fill: none; stroke: #000000; stroke-width: 5"/>
    <path d="M 268.235294 3.529412 
L 276.883865 3.954289 
L 285.449146 5.224828 
L 293.848648 7.328794 
L 302.001479 10.245924 
L 309.829124 13.948124 
L 317.256197 18.39974 
L 324.211172 23.557901 
L 330.627069 29.372931 
L 336.442099 35.788828 
L 341.60026 42.743803 
L 346.051876 50.170876 
L 349.754076 57.998521 
L 352.671206 66.151352 
L 354.775172 74.550854 
L 356.045711 83.116135 
L 356.470588 91.764706 
L 356.045711 100.413277 
L 354.775172 108.978558 
L 352.671206 117.37806 
L 349.754076 125.530891 
L 346.051876 133.358536 
L 341.60026 140.785609 
L 336.442099 147.740584 
L 330.627069 154.156481 
L 324.211172 159.971511 
L 317.256197 165.129672 
L 309.829124 169.581288 
L 302.001479 173.283488 
L 293.848648 176.200618 
L 285.449146 178.304584 
L 276.883865 179.575123 
L 268.235294 180 
L 91.764706 180 
L 83.116135 179.575123 
L 74.550854 178.304584 
L 66.151352 176.200618 
L 57.998521 173.283488 
L 50.170876 169.581288 
L 42.743803 165.129672 
L 35.788828 159.971511 
L 29.372931 154.156481 
L 23.557901 147.740584 
L 18.39974 140.785609 
L 13.948124 133.358536 
L 10.245924 125.530891 
L 7.328794 117.37806 
L 5.224828 108.978558 
L 3.954289 100.413277 
L 3.529412 91.764706 
L 3.954289 83.116135 
L 5.224828 74.550854 
L 7.328794 66.151352 
L 10.245924 57.998521 
L 13.948124 50.170876 
L 18.39974 42.743803 
L 23.557901 35.788828 
L 29.372931 29.372931 
L 35.788828 23.557901 
L 42.743803 18.39974 
L 50.170876 13.948124 
L 57.998521 10.245924 
L 66.151352 7.328794 
L 74.550854 5.224828 
L 83.116135 3.954289 
L 91.764706 3.529412 
L 268.235294 3.529412 
" clip-path="url(#pa319c7caba)" style="fill: none; stroke: #000000; stroke-width: 5"/>
   </g>
   <g id="PathCollection_2">
    <defs>
     <path id="m8dce6c0dc5" d="M 0 3 
C 0.795609 3 1.55874 2.683901 2.12132 2.12132 
C 2.683901 1.55874 3 0.795609 3 0 
C 3 -0.795609 2.683901 -1.55874 2.12132 -2.12132 
C 1.55874 -2.683901 0.795609 -3 0 -3 
C -0.795609 -3 -1.55874 -2.683901 -2.12132 -2.12132 
C -2.683901 -1.55874 -3 -0.795609 -3 0 
C -3 0.795609 -2.683901 1.55874 -2.12132 2.12132 
C -1.55874 2.683901 -0.795609 3 0 3 
z
" style="stroke: #0000ff"/>
    </defs>
    <g clip-path="url(#pa319c7caba)">
     <use xlink:href="#m8dce6c0dc5" x="268.235294" y="268.235294" style="fill: #0000ff; stroke: #0000ff"/>
     <use xlink:href="#m8dce6c0dc5" x="268.235294" y="91.764706" style="fill: #0000ff; stroke: #0000ff"/>
    </g>
   </g>
  </g>
 </g>
 <defs>
  <clipPath id="pa319c7caba">
   <rect x="0" y="0" width="360" height="360"/>
  </clipPath>
 </defs>
</svg>
