<?xml version="1.0" encoding="utf-8" standalone="no"?>
<!DOCTYPE svg PUBLIC "-//W3C//DTD SVG 1.1//EN"
  "http://www.w3.org/Graphics/SVG/1.1/DTD/svg11.dtd">
<svg xmlns:xlink="http://www.w3.org/1999/xlink" width="360pt" height="360pt" viewBox="0 0 360 360" xmlns="http://www.w3.org/2000/svg" version="1.1">
 <metadata>
  <rdf:RDF xmlns:dc="http://purl.org/dc/elements/1.1/" xmlns:cc="http://creativecommons.org/ns#" xmlns:rdf="http://www.w3.org/1999/02/22-rdf-syntax-ns#">
   <cc:Work>
    <dc:type rdf:resource="http://purl.org/dc/dcmitype/StillImage"/>
    <dc:date>2025-01-03T20:21:27.101322</dc:date>
    <dc:format>image/svg+xml</dc:format>
    <dc:creator>
     <cc:Agent>
      <dc:title>Matplotlib v3.10.0, https://matplotlib.org/</dc:title>
     </cc:Agent>
    </dc:creator>
   </cc:Work>
  </rdf:RDF>
 </metadata>
 <defs>
  <style type="text/css">*{stroke-linejoin: round; stroke-linecap: butt}</style>
 </defs>
 <g id="figure_1">
  <g id="patch_1">
   <path d="M 0 360 
L 360 360 
L 360 0 
L 0 0 
z
" style="fill: #ffffff"/>
  </g>
  <g id="axes_1">
   <g id="PatchCollection_1">
    <path d="M 1873.069307 269.108911 
L 1864.487632 443.792923 
L 1838.825252 616.794633 
L 1796.329311 786.44794 
L 1737.409068 951.118988 
L 1662.631956 1109.221907 
L 1572.718121 1259.234079 
L 1468.533481 1399.710803 
L 1351.081392 1529.299214 
L 1221.492982 1646.751303 
L 1081.016257 1750.935943 
L 931.004085 1840.849778 
L 772.901167 1915.62689 
L 608.230118 1974.547133 
L 438.576812 2017.043074 
L 265.575102 2042.705453 
L 90.891089 2051.287129 
L -83.792923 2042.705453 
L -256.794633 2017.043074 
L -426.44794 1974.547133 
L -591.118988 1915.62689 
L -749.221907 1840.849778 
L -899.234079 1750.935943 
L -1039.710803 1646.751303 
L -1169.299214 1529.299214 
L -1286.751303 1399.710803 
L -1390.935943 1259.234079 
L -1480.849778 1109.221907 
L -1555.62689 951.118988 
L -1614.547133 786.44794 
L -1657.043074 616.794633 
L -1682.705453 443.792923 
L -1691.287129 269.108911 
L -1682.705453 94.424898 
L -1657.043074 -78.576812 
L -1614.547133 -248.230118 
L -1555.62689 -412.901167 
L -1480.849778 -571.004085 
L -1390.935943 -721.016257 
L -1286.751303 -861.492982 
L -1169.299214 -991.081392 
L -1039.710803 -1108.533481 
L -899.234079 -1212.718121 
L -749.221907 -1302.631956 
L -591.118988 -1377.409068 
L -426.44794 -1436.329311 
L -256.794633 -1478.825252 
L -83.792923 -1504.487632 
L 90.891089 -1513.069307 
L 265.575102 -1504.487632 
L 438.576812 -1478.825252 
L 608.230118 -1436.329311 
L 772.901167 -1377.409068 
L 931.004085 -1302.631956 
L 1081.016257 -1212.718121 
L 1221.492982 -1108.533481 
L 1351.081392 -991.081392 
L 1468.533481 -861.492982 
L 1572.718121 -721.016257 
L 1662.631956 -571.004085 
L 1737.409068 -412.901167 
L 1796.329311 -248.230118 
L 1838.825252 -78.576812 
L 1864.487632 94.424898 
L 1873.069307 269.108911 
" clip-path="url(#p568b76eaa6)" style="fill: #fffdd0"/>
    <path d="M 1873.069307 90.891089 
L 1864.487632 265.575102 
L 1838.825252 438.576812 
L 1796.329311 608.230118 
L 1737.409068 772.901167 
L 1662.631956 931.004085 
L 1572.718121 1081.016257 
L 1468.533481 1221.492982 
L 1351.081392 1351.081392 
L 1221.492982 1468.533481 
L 1081.016257 1572.718121 
L 931.004085 1662.631956 
L 772.901167 1737.409068 
L 608.230118 1796.329311 
L 438.576812 1838.825252 
L 265.575102 1864.487632 
L 90.891089 1873.069307 
L -83.792923 1864.487632 
L -256.794633 1838.825252 
L -426.44794 1796.329311 
L -591.118988 1737.409068 
L -749.221907 1662.631956 
L -899.234079 1572.718121 
L -1039.710803 1468.533481 
L -1169.299214 1351.081392 
L -1286.751303 1221.492982 
L -1390.935943 1081.016257 
L -1480.849778 931.004085 
L -1555.62689 772.901167 
L -1614.547133 608.230118 
L -1657.043074 438.576812 
L -1682.705453 265.575102 
L -1691.287129 90.891089 
L -1682.705453 -83.792923 
L -1657.043074 -256.794633 
L -1614.547133 -426.44794 
L -1555.62689 -591.118988 
L -1480.849778 -749.221907 
L -1390.935943 -899.234079 
L -1286.751303 -1039.710803 
L -1169.299214 -1169.299214 
L -1039.710803 -1286.751303 
L -899.234079 -1390.935943 
L -749.221907 -1480.849778 
L -591.118988 -1555.62689 
L -426.44794 -1614.547133 
L -256.794633 -1657.043074 
L -83.792923 -1682.705453 
L 90.891089 -1691.287129 
L 265.575102 -1682.705453 
L 438.576812 -1657.043074 
L 608.230118 -1614.547133 
L 772.901167 -1555.62689 
L 931.004085 -1480.849778 
L 1081.016257 -1390.935943 
L 1221.492982 -1286.751303 
L 1351.081392 -1169.299214 
L 1468.533481 -1039.710803 
L 1572.718121 -899.234079 
L 1662.631956 -749.221907 
L 1737.409068 -591.118988 
L 1796.329311 -426.44794 
L 1838.825252 -256.794633 
L 1864.487632 -83.792923 
L 1873.069307 90.891089 
" clip-path="url(#p568b76eaa6)" style="fill: #fffdd0"/>
    <path d="M 2051.287129 269.108911 
L 2042.705453 443.792923 
L 2017.043074 616.794633 
L 1974.547133 786.44794 
L 1915.62689 951.118988 
L 1840.849778 1109.221907 
L 1750.935943 1259.234079 
L 1646.751303 1399.710803 
L 1529.299214 1529.299214 
L 1399.710803 1646.751303 
L 1259.234079 1750.935943 
L 1109.221907 1840.849778 
L 951.118988 1915.62689 
L 786.44794 1974.547133 
L 616.794633 2017.043074 
L 443.792923 2042.705453 
L 269.108911 2051.287129 
L 94.424898 2042.705453 
L -78.576812 2017.043074 
L -248.230118 1974.547133 
L -412.901167 1915.62689 
L -571.004085 1840.849778 
L -721.016257 1750.935943 
L -861.492982 1646.751303 
L -991.081392 1529.299214 
L -1108.533481 1399.710803 
L -1212.718121 1259.234079 
L -1302.631956 1109.221907 
L -1377.409068 951.118988 
L -1436.329311 786.44794 
L -1478.825252 616.794633 
L -1504.487632 443.792923 
L -1513.069307 269.108911 
L -1504.487632 94.424898 
L -1478.825252 -78.576812 
L -1436.329311 -248.230118 
L -1377.409068 -412.901167 
L -1302.631956 -571.004085 
L -1212.718121 -721.016257 
L -1108.533481 -861.492982 
L -991.081392 -991.081392 
L -861.492982 -1108.533481 
L -721.016257 -1212.718121 
L -571.004085 -1302.631956 
L -412.901167 -1377.409068 
L -248.230118 -1436.329311 
L -78.576812 -1478.825252 
L 94.424898 -1504.487632 
L 269.108911 -1513.069307 
L 443.792923 -1504.487632 
L 616.794633 -1478.825252 
L 786.44794 -1436.329311 
L 951.118988 -1377.409068 
L 1109.221907 -1302.631956 
L 1259.234079 -1212.718121 
L 1399.710803 -1108.533481 
L 1529.299214 -991.081392 
L 1646.751303 -861.492982 
L 1750.935943 -721.016257 
L 1840.849778 -571.004085 
L 1915.62689 -412.901167 
L 1974.547133 -248.230118 
L 2017.043074 -78.576812 
L 2042.705453 94.424898 
L 2051.287129 269.108911 
" clip-path="url(#p568b76eaa6)" style="fill: #fffdd0"/>
    <path d="M 2051.287129 90.891089 
L 2042.705453 265.575102 
L 2017.043074 438.576812 
L 1974.547133 608.230118 
L 1915.62689 772.901167 
L 1840.849778 931.004085 
L 1750.935943 1081.016257 
L 1646.751303 1221.492982 
L 1529.299214 1351.081392 
L 1399.710803 1468.533481 
L 1259.234079 1572.718121 
L 1109.221907 1662.631956 
L 951.118988 1737.409068 
L 786.44794 1796.329311 
L 616.794633 1838.825252 
L 443.792923 1864.487632 
L 269.108911 1873.069307 
L 94.424898 1864.487632 
L -78.576812 1838.825252 
L -248.230118 1796.329311 
L -412.901167 1737.409068 
L -571.004085 1662.631956 
L -721.016257 1572.718121 
L -861.492982 1468.533481 
L -991.081392 1351.081392 
L -1108.533481 1221.492982 
L -1212.718121 1081.016257 
L -1302.631956 931.004085 
L -1377.409068 772.901167 
L -1436.329311 608.230118 
L -1478.825252 438.576812 
L -1504.487632 265.575102 
L -1513.069307 90.891089 
L -1504.487632 -83.792923 
L -1478.825252 -256.794633 
L -1436.329311 -426.44794 
L -1377.409068 -591.118988 
L -1302.631956 -749.221907 
L -1212.718121 -899.234079 
L -1108.533481 -1039.710803 
L -991.081392 -1169.299214 
L -861.492982 -1286.751303 
L -721.016257 -1390.935943 
L -571.004085 -1480.849778 
L -412.901167 -1555.62689 
L -248.230118 -1614.547133 
L -78.576812 -1657.043074 
L 94.424898 -1682.705453 
L 269.108911 -1691.287129 
L 443.792923 -1682.705453 
L 616.794633 -1657.043074 
L 786.44794 -1614.547133 
L 951.118988 -1555.62689 
L 1109.221907 -1480.849778 
L 1259.234079 -1390.935943 
L 1399.710803 -1286.751303 
L 1529.299214 -1169.299214 
L 1646.751303 -1039.710803 
L 1750.935943 -899.234079 
L 1840.849778 -749.221907 
L 1915.62689 -591.118988 
L 1974.547133 -426.44794 
L 2017.043074 -256.794633 
L 2042.705453 -83.792923 
L 2051.287129 90.891089 
" clip-path="url(#p568b76eaa6)" style="fill: #fffdd0"/>
   </g>
   <g id="PathCollection_1">
    <defs>
     <path id="m357656d53a" d="M 0 3 
C 0.795609 3 1.55874 2.683901 2.12132 2.12132 
C 2.683901 1.55874 3 0.795609 3 0 
C 3 -0.795609 2.683901 -1.55874 2.12132 -2.12132 
C 1.55874 -2.683901 0.795609 -3 0 -3 
C -0.795609 -3 -1.55874 -2.683901 -2.12132 -2.12132 
C -2.683901 -1.55874 -3 -0.795609 -3 0 
C -3 0.795609 -2.683901 1.55874 -2.12132 2.12132 
C -1.55874 2.683901 -0.795609 3 0 3 
z
" style="stroke: #ff0000"/>
    </defs>
    <g clip-path="url(#p568b76eaa6)">
     <use xlink:href="#m357656d53a" x="90.891089" y="269.108911" style="fill: #ff0000; stroke: #ff0000"/>
     <use xlink:href="#m357656d53a" x="90.891089" y="90.891089" style="fill: #ff0000; stroke: #ff0000"/>
    </g>
   </g>
   <g id="PathCollection_2">
    <defs>
     <path id="m2a0da4db6b" d="M 0 3 
C 0.795609 3 1.55874 2.683901 2.12132 2.12132 
C 2.683901 1.55874 3 0.795609 3 0 
C 3 -0.795609 2.683901 -1.55874 2.12132 -2.12132 
C 1.55874 -2.683901 0.795609 -3 0 -3 
C -0.795609 -3 -1.55874 -2.683901 -2.12132 -2.12132 
C -2.683901 -1.55874 -3 -0.795609 -3 0 
C -3 0.795609 -2.683901 1.55874 -2.12132 2.12132 
C -1.55874 2.683901 -0.795609 3 0 3 
z
" style="stroke: #0000ff"/>
    </defs>
    <g clip-path="url(#p568b76eaa6)">
     <use xlink:href="#m2a0da4db6b" x="269.108911" y="269.108911" style="fill: #0000ff; stroke: #0000ff"/>
     <use xlink:href="#m2a0da4db6b" x="269.108911" y="90.891089" style="fill: #0000ff; stroke: #0000ff"/>
    </g>
   </g>
  </g>
 </g>
 <defs>
  <clipPath id="p568b76eaa6">
   <rect x="0" y="0" width="360" height="360"/>
  </clipPath>
 </defs>
</svg>
