<?xml version="1.0" encoding="utf-8" standalone="no"?>
<!DOCTYPE svg PUBLIC "-//W3C//DTD SVG 1.1//EN"
  "http://www.w3.org/Graphics/SVG/1.1/DTD/svg11.dtd">
<svg height="1440pt" version="1.1" viewBox="0 0 1440 1440" width="1440pt" xmlns="http://www.w3.org/2000/svg" xmlns:xlink="http://www.w3.org/1999/xlink">
 <metadata>
  <rdf:RDF xmlns:cc="http://creativecommons.org/ns#" xmlns:dc="http://purl.org/dc/elements/1.1/" xmlns:rdf="http://www.w3.org/1999/02/22-rdf-syntax-ns#">
   <cc:Work>
    <dc:type rdf:resource="http://purl.org/dc/dcmitype/StillImage"/>
    <dc:date>2024-12-31T12:52:27.295651</dc:date>
    <dc:format>image/svg+xml</dc:format>
    <dc:creator>
     <cc:Agent>
      <dc:title>Matplotlib v3.4.3, https://matplotlib.org/</dc:title>
     </cc:Agent>
    </dc:creator>
   </cc:Work>
  </rdf:RDF>
 </metadata>
 <defs>
  <style type="text/css">*{stroke-linecap:butt;stroke-linejoin:round;}</style>
 </defs>
 <g id="figure_1">
  <g id="patch_1">
   <path d="M 0 1440 
L 1440 1440 
L 1440 0 
L 0 0 
z
" style="fill:none;"/>
  </g>
  <g id="axes_1">
   <g id="LineCollection_1">
    <path clip-path="url(#p30c3661e5b)" d="M 65.454545 1374.545455 
L 210.909091 1374.545455 
L 210.909091 1229.090909 
L 65.454545 1229.090909 
L 65.454545 1374.545455 
" style="fill:none;stroke:#000000;stroke-dasharray:5.55,2.4;stroke-dashoffset:0;stroke-width:1.5;"/>
    <path clip-path="url(#p30c3661e5b)" d="M 501.818182 1374.545455 
L 647.272727 1374.545455 
L 647.272727 1229.090909 
L 501.818182 1229.090909 
L 501.818182 1374.545455 
" style="fill:none;stroke:#000000;stroke-dasharray:5.55,2.4;stroke-dashoffset:0;stroke-width:1.5;"/>
    <path clip-path="url(#p30c3661e5b)" d="M 938.181818 1374.545455 
L 1083.636364 1374.545455 
L 1083.636364 1229.090909 
L 938.181818 1229.090909 
L 938.181818 1374.545455 
" style="fill:none;stroke:#000000;stroke-dasharray:5.55,2.4;stroke-dashoffset:0;stroke-width:1.5;"/>
    <path clip-path="url(#p30c3661e5b)" d="M 65.454545 938.181818 
L 210.909091 938.181818 
L 210.909091 792.727273 
L 65.454545 792.727273 
L 65.454545 938.181818 
" style="fill:none;stroke:#000000;stroke-dasharray:5.55,2.4;stroke-dashoffset:0;stroke-width:1.5;"/>
    <path clip-path="url(#p30c3661e5b)" d="M 501.818182 938.181818 
L 647.272727 938.181818 
L 647.272727 792.727273 
L 501.818182 792.727273 
L 501.818182 938.181818 
" style="fill:none;stroke:#000000;stroke-dasharray:5.55,2.4;stroke-dashoffset:0;stroke-width:1.5;"/>
    <path clip-path="url(#p30c3661e5b)" d="M 938.181818 938.181818 
L 1083.636364 938.181818 
L 1083.636364 792.727273 
L 938.181818 792.727273 
L 938.181818 938.181818 
" style="fill:none;stroke:#000000;stroke-dasharray:5.55,2.4;stroke-dashoffset:0;stroke-width:1.5;"/>
    <path clip-path="url(#p30c3661e5b)" d="M 65.454545 501.818182 
L 210.909091 501.818182 
L 210.909091 356.363636 
L 65.454545 356.363636 
L 65.454545 501.818182 
" style="fill:none;stroke:#000000;stroke-dasharray:5.55,2.4;stroke-dashoffset:0;stroke-width:1.5;"/>
    <path clip-path="url(#p30c3661e5b)" d="M 501.818182 501.818182 
L 647.272727 501.818182 
L 647.272727 356.363636 
L 501.818182 356.363636 
L 501.818182 501.818182 
" style="fill:none;stroke:#000000;stroke-dasharray:5.55,2.4;stroke-dashoffset:0;stroke-width:1.5;"/>
    <path clip-path="url(#p30c3661e5b)" d="M 938.181818 501.818182 
L 1083.636364 501.818182 
L 1083.636364 356.363636 
L 938.181818 356.363636 
L 938.181818 501.818182 
" style="fill:none;stroke:#000000;stroke-dasharray:5.55,2.4;stroke-dashoffset:0;stroke-width:1.5;"/>
    <path clip-path="url(#p30c3661e5b)" d="M 210.909091 1374.545455 
L 356.363636 1374.545455 
L 356.363636 1229.090909 
L 210.909091 1229.090909 
L 210.909091 1374.545455 
" style="fill:none;stroke:#000000;stroke-dasharray:5.55,2.4;stroke-dashoffset:0;stroke-width:1.5;"/>
    <path clip-path="url(#p30c3661e5b)" d="M 647.272727 1374.545455 
L 792.727273 1374.545455 
L 792.727273 1229.090909 
L 647.272727 1229.090909 
L 647.272727 1374.545455 
" style="fill:none;stroke:#000000;stroke-dasharray:5.55,2.4;stroke-dashoffset:0;stroke-width:1.5;"/>
    <path clip-path="url(#p30c3661e5b)" d="M 1083.636364 1374.545455 
L 1229.090909 1374.545455 
L 1229.090909 1229.090909 
L 1083.636364 1229.090909 
L 1083.636364 1374.545455 
" style="fill:none;stroke:#000000;stroke-dasharray:5.55,2.4;stroke-dashoffset:0;stroke-width:1.5;"/>
    <path clip-path="url(#p30c3661e5b)" d="M 210.909091 938.181818 
L 356.363636 938.181818 
L 356.363636 792.727273 
L 210.909091 792.727273 
L 210.909091 938.181818 
" style="fill:none;stroke:#000000;stroke-dasharray:5.55,2.4;stroke-dashoffset:0;stroke-width:1.5;"/>
    <path clip-path="url(#p30c3661e5b)" d="M 647.272727 938.181818 
L 792.727273 938.181818 
L 792.727273 792.727273 
L 647.272727 792.727273 
L 647.272727 938.181818 
" style="fill:none;stroke:#000000;stroke-dasharray:5.55,2.4;stroke-dashoffset:0;stroke-width:1.5;"/>
    <path clip-path="url(#p30c3661e5b)" d="M 1083.636364 938.181818 
L 1229.090909 938.181818 
L 1229.090909 792.727273 
L 1083.636364 792.727273 
L 1083.636364 938.181818 
" style="fill:none;stroke:#000000;stroke-dasharray:5.55,2.4;stroke-dashoffset:0;stroke-width:1.5;"/>
    <path clip-path="url(#p30c3661e5b)" d="M 210.909091 501.818182 
L 356.363636 501.818182 
L 356.363636 356.363636 
L 210.909091 356.363636 
L 210.909091 501.818182 
" style="fill:none;stroke:#000000;stroke-dasharray:5.55,2.4;stroke-dashoffset:0;stroke-width:1.5;"/>
    <path clip-path="url(#p30c3661e5b)" d="M 647.272727 501.818182 
L 792.727273 501.818182 
L 792.727273 356.363636 
L 647.272727 356.363636 
L 647.272727 501.818182 
" style="fill:none;stroke:#000000;stroke-dasharray:5.55,2.4;stroke-dashoffset:0;stroke-width:1.5;"/>
    <path clip-path="url(#p30c3661e5b)" d="M 1083.636364 501.818182 
L 1229.090909 501.818182 
L 1229.090909 356.363636 
L 1083.636364 356.363636 
L 1083.636364 501.818182 
" style="fill:none;stroke:#000000;stroke-dasharray:5.55,2.4;stroke-dashoffset:0;stroke-width:1.5;"/>
    <path clip-path="url(#p30c3661e5b)" d="M 356.363636 1374.545455 
L 501.818182 1374.545455 
L 501.818182 1229.090909 
L 356.363636 1229.090909 
L 356.363636 1374.545455 
" style="fill:none;stroke:#000000;stroke-dasharray:5.55,2.4;stroke-dashoffset:0;stroke-width:1.5;"/>
    <path clip-path="url(#p30c3661e5b)" d="M 792.727273 1374.545455 
L 938.181818 1374.545455 
L 938.181818 1229.090909 
L 792.727273 1229.090909 
L 792.727273 1374.545455 
" style="fill:none;stroke:#000000;stroke-dasharray:5.55,2.4;stroke-dashoffset:0;stroke-width:1.5;"/>
    <path clip-path="url(#p30c3661e5b)" d="M 1229.090909 1374.545455 
L 1374.545455 1374.545455 
L 1374.545455 1229.090909 
L 1229.090909 1229.090909 
L 1229.090909 1374.545455 
" style="fill:none;stroke:#000000;stroke-dasharray:5.55,2.4;stroke-dashoffset:0;stroke-width:1.5;"/>
    <path clip-path="url(#p30c3661e5b)" d="M 356.363636 938.181818 
L 501.818182 938.181818 
L 501.818182 792.727273 
L 356.363636 792.727273 
L 356.363636 938.181818 
" style="fill:none;stroke:#000000;stroke-dasharray:5.55,2.4;stroke-dashoffset:0;stroke-width:1.5;"/>
    <path clip-path="url(#p30c3661e5b)" d="M 792.727273 938.181818 
L 938.181818 938.181818 
L 938.181818 792.727273 
L 792.727273 792.727273 
L 792.727273 938.181818 
" style="fill:none;stroke:#000000;stroke-dasharray:5.55,2.4;stroke-dashoffset:0;stroke-width:1.5;"/>
    <path clip-path="url(#p30c3661e5b)" d="M 1229.090909 938.181818 
L 1374.545455 938.181818 
L 1374.545455 792.727273 
L 1229.090909 792.727273 
L 1229.090909 938.181818 
" style="fill:none;stroke:#000000;stroke-dasharray:5.55,2.4;stroke-dashoffset:0;stroke-width:1.5;"/>
    <path clip-path="url(#p30c3661e5b)" d="M 356.363636 501.818182 
L 501.818182 501.818182 
L 501.818182 356.363636 
L 356.363636 356.363636 
L 356.363636 501.818182 
" style="fill:none;stroke:#000000;stroke-dasharray:5.55,2.4;stroke-dashoffset:0;stroke-width:1.5;"/>
    <path clip-path="url(#p30c3661e5b)" d="M 792.727273 501.818182 
L 938.181818 501.818182 
L 938.181818 356.363636 
L 792.727273 356.363636 
L 792.727273 501.818182 
" style="fill:none;stroke:#000000;stroke-dasharray:5.55,2.4;stroke-dashoffset:0;stroke-width:1.5;"/>
    <path clip-path="url(#p30c3661e5b)" d="M 1229.090909 501.818182 
L 1374.545455 501.818182 
L 1374.545455 356.363636 
L 1229.090909 356.363636 
L 1229.090909 501.818182 
" style="fill:none;stroke:#000000;stroke-dasharray:5.55,2.4;stroke-dashoffset:0;stroke-width:1.5;"/>
    <path clip-path="url(#p30c3661e5b)" d="M 65.454545 1229.090909 
L 210.909091 1229.090909 
L 210.909091 1083.636364 
L 65.454545 1083.636364 
L 65.454545 1229.090909 
" style="fill:none;stroke:#000000;stroke-dasharray:5.55,2.4;stroke-dashoffset:0;stroke-width:1.5;"/>
    <path clip-path="url(#p30c3661e5b)" d="M 501.818182 1229.090909 
L 647.272727 1229.090909 
L 647.272727 1083.636364 
L 501.818182 1083.636364 
L 501.818182 1229.090909 
" style="fill:none;stroke:#000000;stroke-dasharray:5.55,2.4;stroke-dashoffset:0;stroke-width:1.5;"/>
    <path clip-path="url(#p30c3661e5b)" d="M 938.181818 1229.090909 
L 1083.636364 1229.090909 
L 1083.636364 1083.636364 
L 938.181818 1083.636364 
L 938.181818 1229.090909 
" style="fill:none;stroke:#000000;stroke-dasharray:5.55,2.4;stroke-dashoffset:0;stroke-width:1.5;"/>
    <path clip-path="url(#p30c3661e5b)" d="M 65.454545 792.727273 
L 210.909091 792.727273 
L 210.909091 647.272727 
L 65.454545 647.272727 
L 65.454545 792.727273 
" style="fill:none;stroke:#000000;stroke-dasharray:5.55,2.4;stroke-dashoffset:0;stroke-width:1.5;"/>
    <path clip-path="url(#p30c3661e5b)" d="M 501.818182 792.727273 
L 647.272727 792.727273 
L 647.272727 647.272727 
L 501.818182 647.272727 
L 501.818182 792.727273 
" style="fill:none;stroke:#000000;stroke-dasharray:5.55,2.4;stroke-dashoffset:0;stroke-width:1.5;"/>
    <path clip-path="url(#p30c3661e5b)" d="M 938.181818 792.727273 
L 1083.636364 792.727273 
L 1083.636364 647.272727 
L 938.181818 647.272727 
L 938.181818 792.727273 
" style="fill:none;stroke:#000000;stroke-dasharray:5.55,2.4;stroke-dashoffset:0;stroke-width:1.5;"/>
    <path clip-path="url(#p30c3661e5b)" d="M 65.454545 356.363636 
L 210.909091 356.363636 
L 210.909091 210.909091 
L 65.454545 210.909091 
L 65.454545 356.363636 
" style="fill:none;stroke:#000000;stroke-dasharray:5.55,2.4;stroke-dashoffset:0;stroke-width:1.5;"/>
    <path clip-path="url(#p30c3661e5b)" d="M 501.818182 356.363636 
L 647.272727 356.363636 
L 647.272727 210.909091 
L 501.818182 210.909091 
L 501.818182 356.363636 
" style="fill:none;stroke:#000000;stroke-dasharray:5.55,2.4;stroke-dashoffset:0;stroke-width:1.5;"/>
    <path clip-path="url(#p30c3661e5b)" d="M 938.181818 356.363636 
L 1083.636364 356.363636 
L 1083.636364 210.909091 
L 938.181818 210.909091 
L 938.181818 356.363636 
" style="fill:none;stroke:#000000;stroke-dasharray:5.55,2.4;stroke-dashoffset:0;stroke-width:1.5;"/>
    <path clip-path="url(#p30c3661e5b)" d="M 210.909091 1229.090909 
L 356.363636 1229.090909 
L 356.363636 1083.636364 
L 210.909091 1083.636364 
L 210.909091 1229.090909 
" style="fill:none;stroke:#000000;stroke-dasharray:5.55,2.4;stroke-dashoffset:0;stroke-width:1.5;"/>
    <path clip-path="url(#p30c3661e5b)" d="M 647.272727 1229.090909 
L 792.727273 1229.090909 
L 792.727273 1083.636364 
L 647.272727 1083.636364 
L 647.272727 1229.090909 
" style="fill:none;stroke:#000000;stroke-dasharray:5.55,2.4;stroke-dashoffset:0;stroke-width:1.5;"/>
    <path clip-path="url(#p30c3661e5b)" d="M 1083.636364 1229.090909 
L 1229.090909 1229.090909 
L 1229.090909 1083.636364 
L 1083.636364 1083.636364 
L 1083.636364 1229.090909 
" style="fill:none;stroke:#000000;stroke-dasharray:5.55,2.4;stroke-dashoffset:0;stroke-width:1.5;"/>
    <path clip-path="url(#p30c3661e5b)" d="M 210.909091 792.727273 
L 356.363636 792.727273 
L 356.363636 647.272727 
L 210.909091 647.272727 
L 210.909091 792.727273 
" style="fill:none;stroke:#000000;stroke-dasharray:5.55,2.4;stroke-dashoffset:0;stroke-width:1.5;"/>
    <path clip-path="url(#p30c3661e5b)" d="M 647.272727 792.727273 
L 792.727273 792.727273 
L 792.727273 647.272727 
L 647.272727 647.272727 
L 647.272727 792.727273 
" style="fill:none;stroke:#000000;stroke-dasharray:5.55,2.4;stroke-dashoffset:0;stroke-width:1.5;"/>
    <path clip-path="url(#p30c3661e5b)" d="M 1083.636364 792.727273 
L 1229.090909 792.727273 
L 1229.090909 647.272727 
L 1083.636364 647.272727 
L 1083.636364 792.727273 
" style="fill:none;stroke:#000000;stroke-dasharray:5.55,2.4;stroke-dashoffset:0;stroke-width:1.5;"/>
    <path clip-path="url(#p30c3661e5b)" d="M 210.909091 356.363636 
L 356.363636 356.363636 
L 356.363636 210.909091 
L 210.909091 210.909091 
L 210.909091 356.363636 
" style="fill:none;stroke:#000000;stroke-dasharray:5.55,2.4;stroke-dashoffset:0;stroke-width:1.5;"/>
    <path clip-path="url(#p30c3661e5b)" d="M 647.272727 356.363636 
L 792.727273 356.363636 
L 792.727273 210.909091 
L 647.272727 210.909091 
L 647.272727 356.363636 
" style="fill:none;stroke:#000000;stroke-dasharray:5.55,2.4;stroke-dashoffset:0;stroke-width:1.5;"/>
    <path clip-path="url(#p30c3661e5b)" d="M 1083.636364 356.363636 
L 1229.090909 356.363636 
L 1229.090909 210.909091 
L 1083.636364 210.909091 
L 1083.636364 356.363636 
" style="fill:none;stroke:#000000;stroke-dasharray:5.55,2.4;stroke-dashoffset:0;stroke-width:1.5;"/>
    <path clip-path="url(#p30c3661e5b)" d="M 356.363636 1229.090909 
L 501.818182 1229.090909 
L 501.818182 1083.636364 
L 356.363636 1083.636364 
L 356.363636 1229.090909 
" style="fill:none;stroke:#000000;stroke-dasharray:5.55,2.4;stroke-dashoffset:0;stroke-width:1.5;"/>
    <path clip-path="url(#p30c3661e5b)" d="M 792.727273 1229.090909 
L 938.181818 1229.090909 
L 938.181818 1083.636364 
L 792.727273 1083.636364 
L 792.727273 1229.090909 
" style="fill:none;stroke:#000000;stroke-dasharray:5.55,2.4;stroke-dashoffset:0;stroke-width:1.5;"/>
    <path clip-path="url(#p30c3661e5b)" d="M 1229.090909 1229.090909 
L 1374.545455 1229.090909 
L 1374.545455 1083.636364 
L 1229.090909 1083.636364 
L 1229.090909 1229.090909 
" style="fill:none;stroke:#000000;stroke-dasharray:5.55,2.4;stroke-dashoffset:0;stroke-width:1.5;"/>
    <path clip-path="url(#p30c3661e5b)" d="M 356.363636 792.727273 
L 501.818182 792.727273 
L 501.818182 647.272727 
L 356.363636 647.272727 
L 356.363636 792.727273 
" style="fill:none;stroke:#000000;stroke-dasharray:5.55,2.4;stroke-dashoffset:0;stroke-width:1.5;"/>
    <path clip-path="url(#p30c3661e5b)" d="M 792.727273 792.727273 
L 938.181818 792.727273 
L 938.181818 647.272727 
L 792.727273 647.272727 
L 792.727273 792.727273 
" style="fill:none;stroke:#000000;stroke-dasharray:5.55,2.4;stroke-dashoffset:0;stroke-width:1.5;"/>
    <path clip-path="url(#p30c3661e5b)" d="M 1229.090909 792.727273 
L 1374.545455 792.727273 
L 1374.545455 647.272727 
L 1229.090909 647.272727 
L 1229.090909 792.727273 
" style="fill:none;stroke:#000000;stroke-dasharray:5.55,2.4;stroke-dashoffset:0;stroke-width:1.5;"/>
    <path clip-path="url(#p30c3661e5b)" d="M 356.363636 356.363636 
L 501.818182 356.363636 
L 501.818182 210.909091 
L 356.363636 210.909091 
L 356.363636 356.363636 
" style="fill:none;stroke:#000000;stroke-dasharray:5.55,2.4;stroke-dashoffset:0;stroke-width:1.5;"/>
    <path clip-path="url(#p30c3661e5b)" d="M 792.727273 356.363636 
L 938.181818 356.363636 
L 938.181818 210.909091 
L 792.727273 210.909091 
L 792.727273 356.363636 
" style="fill:none;stroke:#000000;stroke-dasharray:5.55,2.4;stroke-dashoffset:0;stroke-width:1.5;"/>
    <path clip-path="url(#p30c3661e5b)" d="M 1229.090909 356.363636 
L 1374.545455 356.363636 
L 1374.545455 210.909091 
L 1229.090909 210.909091 
L 1229.090909 356.363636 
" style="fill:none;stroke:#000000;stroke-dasharray:5.55,2.4;stroke-dashoffset:0;stroke-width:1.5;"/>
    <path clip-path="url(#p30c3661e5b)" d="M 65.454545 1083.636364 
L 210.909091 1083.636364 
L 210.909091 938.181818 
L 65.454545 938.181818 
L 65.454545 1083.636364 
" style="fill:none;stroke:#000000;stroke-dasharray:5.55,2.4;stroke-dashoffset:0;stroke-width:1.5;"/>
    <path clip-path="url(#p30c3661e5b)" d="M 501.818182 1083.636364 
L 647.272727 1083.636364 
L 647.272727 938.181818 
L 501.818182 938.181818 
L 501.818182 1083.636364 
" style="fill:none;stroke:#000000;stroke-dasharray:5.55,2.4;stroke-dashoffset:0;stroke-width:1.5;"/>
    <path clip-path="url(#p30c3661e5b)" d="M 938.181818 1083.636364 
L 1083.636364 1083.636364 
L 1083.636364 938.181818 
L 938.181818 938.181818 
L 938.181818 1083.636364 
" style="fill:none;stroke:#000000;stroke-dasharray:5.55,2.4;stroke-dashoffset:0;stroke-width:1.5;"/>
    <path clip-path="url(#p30c3661e5b)" d="M 65.454545 647.272727 
L 210.909091 647.272727 
L 210.909091 501.818182 
L 65.454545 501.818182 
L 65.454545 647.272727 
" style="fill:none;stroke:#000000;stroke-dasharray:5.55,2.4;stroke-dashoffset:0;stroke-width:1.5;"/>
    <path clip-path="url(#p30c3661e5b)" d="M 501.818182 647.272727 
L 647.272727 647.272727 
L 647.272727 501.818182 
L 501.818182 501.818182 
L 501.818182 647.272727 
" style="fill:none;stroke:#000000;stroke-dasharray:5.55,2.4;stroke-dashoffset:0;stroke-width:1.5;"/>
    <path clip-path="url(#p30c3661e5b)" d="M 938.181818 647.272727 
L 1083.636364 647.272727 
L 1083.636364 501.818182 
L 938.181818 501.818182 
L 938.181818 647.272727 
" style="fill:none;stroke:#000000;stroke-dasharray:5.55,2.4;stroke-dashoffset:0;stroke-width:1.5;"/>
    <path clip-path="url(#p30c3661e5b)" d="M 65.454545 210.909091 
L 210.909091 210.909091 
L 210.909091 65.454545 
L 65.454545 65.454545 
L 65.454545 210.909091 
" style="fill:none;stroke:#000000;stroke-dasharray:5.55,2.4;stroke-dashoffset:0;stroke-width:1.5;"/>
    <path clip-path="url(#p30c3661e5b)" d="M 501.818182 210.909091 
L 647.272727 210.909091 
L 647.272727 65.454545 
L 501.818182 65.454545 
L 501.818182 210.909091 
" style="fill:none;stroke:#000000;stroke-dasharray:5.55,2.4;stroke-dashoffset:0;stroke-width:1.5;"/>
    <path clip-path="url(#p30c3661e5b)" d="M 938.181818 210.909091 
L 1083.636364 210.909091 
L 1083.636364 65.454545 
L 938.181818 65.454545 
L 938.181818 210.909091 
" style="fill:none;stroke:#000000;stroke-dasharray:5.55,2.4;stroke-dashoffset:0;stroke-width:1.5;"/>
    <path clip-path="url(#p30c3661e5b)" d="M 210.909091 1083.636364 
L 356.363636 1083.636364 
L 356.363636 938.181818 
L 210.909091 938.181818 
L 210.909091 1083.636364 
" style="fill:none;stroke:#000000;stroke-dasharray:5.55,2.4;stroke-dashoffset:0;stroke-width:1.5;"/>
    <path clip-path="url(#p30c3661e5b)" d="M 647.272727 1083.636364 
L 792.727273 1083.636364 
L 792.727273 938.181818 
L 647.272727 938.181818 
L 647.272727 1083.636364 
" style="fill:none;stroke:#000000;stroke-dasharray:5.55,2.4;stroke-dashoffset:0;stroke-width:1.5;"/>
    <path clip-path="url(#p30c3661e5b)" d="M 1083.636364 1083.636364 
L 1229.090909 1083.636364 
L 1229.090909 938.181818 
L 1083.636364 938.181818 
L 1083.636364 1083.636364 
" style="fill:none;stroke:#000000;stroke-dasharray:5.55,2.4;stroke-dashoffset:0;stroke-width:1.5;"/>
    <path clip-path="url(#p30c3661e5b)" d="M 210.909091 647.272727 
L 356.363636 647.272727 
L 356.363636 501.818182 
L 210.909091 501.818182 
L 210.909091 647.272727 
" style="fill:none;stroke:#000000;stroke-dasharray:5.55,2.4;stroke-dashoffset:0;stroke-width:1.5;"/>
    <path clip-path="url(#p30c3661e5b)" d="M 647.272727 647.272727 
L 792.727273 647.272727 
L 792.727273 501.818182 
L 647.272727 501.818182 
L 647.272727 647.272727 
" style="fill:none;stroke:#000000;stroke-dasharray:5.55,2.4;stroke-dashoffset:0;stroke-width:1.5;"/>
    <path clip-path="url(#p30c3661e5b)" d="M 1083.636364 647.272727 
L 1229.090909 647.272727 
L 1229.090909 501.818182 
L 1083.636364 501.818182 
L 1083.636364 647.272727 
" style="fill:none;stroke:#000000;stroke-dasharray:5.55,2.4;stroke-dashoffset:0;stroke-width:1.5;"/>
    <path clip-path="url(#p30c3661e5b)" d="M 210.909091 210.909091 
L 356.363636 210.909091 
L 356.363636 65.454545 
L 210.909091 65.454545 
L 210.909091 210.909091 
" style="fill:none;stroke:#000000;stroke-dasharray:5.55,2.4;stroke-dashoffset:0;stroke-width:1.5;"/>
    <path clip-path="url(#p30c3661e5b)" d="M 647.272727 210.909091 
L 792.727273 210.909091 
L 792.727273 65.454545 
L 647.272727 65.454545 
L 647.272727 210.909091 
" style="fill:none;stroke:#000000;stroke-dasharray:5.55,2.4;stroke-dashoffset:0;stroke-width:1.5;"/>
    <path clip-path="url(#p30c3661e5b)" d="M 1083.636364 210.909091 
L 1229.090909 210.909091 
L 1229.090909 65.454545 
L 1083.636364 65.454545 
L 1083.636364 210.909091 
" style="fill:none;stroke:#000000;stroke-dasharray:5.55,2.4;stroke-dashoffset:0;stroke-width:1.5;"/>
    <path clip-path="url(#p30c3661e5b)" d="M 356.363636 1083.636364 
L 501.818182 1083.636364 
L 501.818182 938.181818 
L 356.363636 938.181818 
L 356.363636 1083.636364 
" style="fill:none;stroke:#000000;stroke-dasharray:5.55,2.4;stroke-dashoffset:0;stroke-width:1.5;"/>
    <path clip-path="url(#p30c3661e5b)" d="M 792.727273 1083.636364 
L 938.181818 1083.636364 
L 938.181818 938.181818 
L 792.727273 938.181818 
L 792.727273 1083.636364 
" style="fill:none;stroke:#000000;stroke-dasharray:5.55,2.4;stroke-dashoffset:0;stroke-width:1.5;"/>
    <path clip-path="url(#p30c3661e5b)" d="M 1229.090909 1083.636364 
L 1374.545455 1083.636364 
L 1374.545455 938.181818 
L 1229.090909 938.181818 
L 1229.090909 1083.636364 
" style="fill:none;stroke:#000000;stroke-dasharray:5.55,2.4;stroke-dashoffset:0;stroke-width:1.5;"/>
    <path clip-path="url(#p30c3661e5b)" d="M 356.363636 647.272727 
L 501.818182 647.272727 
L 501.818182 501.818182 
L 356.363636 501.818182 
L 356.363636 647.272727 
" style="fill:none;stroke:#000000;stroke-dasharray:5.55,2.4;stroke-dashoffset:0;stroke-width:1.5;"/>
    <path clip-path="url(#p30c3661e5b)" d="M 792.727273 647.272727 
L 938.181818 647.272727 
L 938.181818 501.818182 
L 792.727273 501.818182 
L 792.727273 647.272727 
" style="fill:none;stroke:#000000;stroke-dasharray:5.55,2.4;stroke-dashoffset:0;stroke-width:1.5;"/>
    <path clip-path="url(#p30c3661e5b)" d="M 1229.090909 647.272727 
L 1374.545455 647.272727 
L 1374.545455 501.818182 
L 1229.090909 501.818182 
L 1229.090909 647.272727 
" style="fill:none;stroke:#000000;stroke-dasharray:5.55,2.4;stroke-dashoffset:0;stroke-width:1.5;"/>
    <path clip-path="url(#p30c3661e5b)" d="M 356.363636 210.909091 
L 501.818182 210.909091 
L 501.818182 65.454545 
L 356.363636 65.454545 
L 356.363636 210.909091 
" style="fill:none;stroke:#000000;stroke-dasharray:5.55,2.4;stroke-dashoffset:0;stroke-width:1.5;"/>
    <path clip-path="url(#p30c3661e5b)" d="M 792.727273 210.909091 
L 938.181818 210.909091 
L 938.181818 65.454545 
L 792.727273 65.454545 
L 792.727273 210.909091 
" style="fill:none;stroke:#000000;stroke-dasharray:5.55,2.4;stroke-dashoffset:0;stroke-width:1.5;"/>
    <path clip-path="url(#p30c3661e5b)" d="M 1229.090909 210.909091 
L 1374.545455 210.909091 
L 1374.545455 65.454545 
L 1229.090909 65.454545 
L 1229.090909 210.909091 
" style="fill:none;stroke:#000000;stroke-dasharray:5.55,2.4;stroke-dashoffset:0;stroke-width:1.5;"/>
   </g>
   <g id="LineCollection_2">
    <path clip-path="url(#p30c3661e5b)" d="M 65.454545 1374.545455 
L 501.818182 1374.545455 
L 501.818182 938.181818 
L 65.454545 938.181818 
L 65.454545 1374.545455 
" style="fill:none;stroke:#000000;stroke-width:10;"/>
    <path clip-path="url(#p30c3661e5b)" d="M 501.818182 1374.545455 
L 938.181818 1374.545455 
L 938.181818 938.181818 
L 501.818182 938.181818 
L 501.818182 1374.545455 
" style="fill:none;stroke:#000000;stroke-width:10;"/>
    <path clip-path="url(#p30c3661e5b)" d="M 938.181818 1374.545455 
L 1374.545455 1374.545455 
L 1374.545455 938.181818 
L 938.181818 938.181818 
L 938.181818 1374.545455 
" style="fill:none;stroke:#000000;stroke-width:10;"/>
    <path clip-path="url(#p30c3661e5b)" d="M 65.454545 938.181818 
L 501.818182 938.181818 
L 501.818182 501.818182 
L 65.454545 501.818182 
L 65.454545 938.181818 
" style="fill:none;stroke:#000000;stroke-width:10;"/>
    <path clip-path="url(#p30c3661e5b)" d="M 501.818182 938.181818 
L 938.181818 938.181818 
L 938.181818 501.818182 
L 501.818182 501.818182 
L 501.818182 938.181818 
" style="fill:none;stroke:#000000;stroke-width:10;"/>
    <path clip-path="url(#p30c3661e5b)" d="M 938.181818 938.181818 
L 1374.545455 938.181818 
L 1374.545455 501.818182 
L 938.181818 501.818182 
L 938.181818 938.181818 
" style="fill:none;stroke:#000000;stroke-width:10;"/>
    <path clip-path="url(#p30c3661e5b)" d="M 65.454545 501.818182 
L 501.818182 501.818182 
L 501.818182 65.454545 
L 65.454545 65.454545 
L 65.454545 501.818182 
" style="fill:none;stroke:#000000;stroke-width:10;"/>
    <path clip-path="url(#p30c3661e5b)" d="M 501.818182 501.818182 
L 938.181818 501.818182 
L 938.181818 65.454545 
L 501.818182 65.454545 
L 501.818182 501.818182 
" style="fill:none;stroke:#000000;stroke-width:10;"/>
    <path clip-path="url(#p30c3661e5b)" d="M 938.181818 501.818182 
L 1374.545455 501.818182 
L 1374.545455 65.454545 
L 938.181818 65.454545 
L 938.181818 501.818182 
" style="fill:none;stroke:#000000;stroke-width:10;"/>
   </g>
   <g id="text_1">
    <!-- $P_{1} . P_1 $ -->
    <g transform="translate(82.272727 1314.363636)scale(0.45 -0.45)">
     <defs>
      <path d="M 1081 4666 
L 2541 4666 
Q 3178 4666 3512 4369 
Q 3847 4072 3847 3500 
Q 3847 2731 3353 2303 
Q 2859 1875 1966 1875 
L 1172 1875 
L 806 0 
L 172 0 
L 1081 4666 
z
M 1613 4147 
L 1275 2394 
L 2069 2394 
Q 2606 2394 2893 2669 
Q 3181 2944 3181 3456 
Q 3181 3784 2986 3965 
Q 2791 4147 2438 4147 
L 1613 4147 
z
" id="DejaVuSans-Oblique-50" transform="scale(0.015625)"/>
      <path d="M 794 531 
L 1825 531 
L 1825 4091 
L 703 3866 
L 703 4441 
L 1819 4666 
L 2450 4666 
L 2450 531 
L 3481 531 
L 3481 0 
L 794 0 
L 794 531 
z
" id="DejaVuSans-31" transform="scale(0.015625)"/>
      <path d="M 684 794 
L 1344 794 
L 1344 0 
L 684 0 
L 684 794 
z
" id="DejaVuSans-2e" transform="scale(0.015625)"/>
     </defs>
     <use transform="translate(0 0.09375)" xlink:href="#DejaVuSans-Oblique-50"/>
     <use transform="translate(60.302734 -16.3125)scale(0.7)" xlink:href="#DejaVuSans-31"/>
     <use transform="translate(107.573242 0.09375)" xlink:href="#DejaVuSans-2e"/>
     <use transform="translate(158.842773 0.09375)" xlink:href="#DejaVuSans-Oblique-50"/>
     <use transform="translate(219.145508 -16.3125)scale(0.7)" xlink:href="#DejaVuSans-31"/>
    </g>
   </g>
   <g id="text_2">
    <!-- $P_{2} . P_1 $ -->
    <g transform="translate(518.636364 1314.363636)scale(0.45 -0.45)">
     <defs>
      <path d="M 1228 531 
L 3431 531 
L 3431 0 
L 469 0 
L 469 531 
Q 828 903 1448 1529 
Q 2069 2156 2228 2338 
Q 2531 2678 2651 2914 
Q 2772 3150 2772 3378 
Q 2772 3750 2511 3984 
Q 2250 4219 1831 4219 
Q 1534 4219 1204 4116 
Q 875 4013 500 3803 
L 500 4441 
Q 881 4594 1212 4672 
Q 1544 4750 1819 4750 
Q 2544 4750 2975 4387 
Q 3406 4025 3406 3419 
Q 3406 3131 3298 2873 
Q 3191 2616 2906 2266 
Q 2828 2175 2409 1742 
Q 1991 1309 1228 531 
z
" id="DejaVuSans-32" transform="scale(0.015625)"/>
     </defs>
     <use transform="translate(0 0.09375)" xlink:href="#DejaVuSans-Oblique-50"/>
     <use transform="translate(60.302734 -16.3125)scale(0.7)" xlink:href="#DejaVuSans-32"/>
     <use transform="translate(107.573242 0.09375)" xlink:href="#DejaVuSans-2e"/>
     <use transform="translate(158.842773 0.09375)" xlink:href="#DejaVuSans-Oblique-50"/>
     <use transform="translate(219.145508 -16.3125)scale(0.7)" xlink:href="#DejaVuSans-31"/>
    </g>
   </g>
   <g id="text_3">
    <!-- $P_{3} . P_1 $ -->
    <g transform="translate(955 1314.363636)scale(0.45 -0.45)">
     <defs>
      <path d="M 2597 2516 
Q 3050 2419 3304 2112 
Q 3559 1806 3559 1356 
Q 3559 666 3084 287 
Q 2609 -91 1734 -91 
Q 1441 -91 1130 -33 
Q 819 25 488 141 
L 488 750 
Q 750 597 1062 519 
Q 1375 441 1716 441 
Q 2309 441 2620 675 
Q 2931 909 2931 1356 
Q 2931 1769 2642 2001 
Q 2353 2234 1838 2234 
L 1294 2234 
L 1294 2753 
L 1863 2753 
Q 2328 2753 2575 2939 
Q 2822 3125 2822 3475 
Q 2822 3834 2567 4026 
Q 2313 4219 1838 4219 
Q 1578 4219 1281 4162 
Q 984 4106 628 3988 
L 628 4550 
Q 988 4650 1302 4700 
Q 1616 4750 1894 4750 
Q 2613 4750 3031 4423 
Q 3450 4097 3450 3541 
Q 3450 3153 3228 2886 
Q 3006 2619 2597 2516 
z
" id="DejaVuSans-33" transform="scale(0.015625)"/>
     </defs>
     <use transform="translate(0 0.09375)" xlink:href="#DejaVuSans-Oblique-50"/>
     <use transform="translate(60.302734 -16.3125)scale(0.7)" xlink:href="#DejaVuSans-33"/>
     <use transform="translate(107.573242 0.09375)" xlink:href="#DejaVuSans-2e"/>
     <use transform="translate(158.842773 0.09375)" xlink:href="#DejaVuSans-Oblique-50"/>
     <use transform="translate(219.145508 -16.3125)scale(0.7)" xlink:href="#DejaVuSans-31"/>
    </g>
   </g>
   <g id="text_4">
    <!-- $P_{4} . P_1 $ -->
    <g transform="translate(82.272727 878)scale(0.45 -0.45)">
     <defs>
      <path d="M 2419 4116 
L 825 1625 
L 2419 1625 
L 2419 4116 
z
M 2253 4666 
L 3047 4666 
L 3047 1625 
L 3713 1625 
L 3713 1100 
L 3047 1100 
L 3047 0 
L 2419 0 
L 2419 1100 
L 313 1100 
L 313 1709 
L 2253 4666 
z
" id="DejaVuSans-34" transform="scale(0.015625)"/>
     </defs>
     <use transform="translate(0 0.09375)" xlink:href="#DejaVuSans-Oblique-50"/>
     <use transform="translate(60.302734 -16.3125)scale(0.7)" xlink:href="#DejaVuSans-34"/>
     <use transform="translate(107.573242 0.09375)" xlink:href="#DejaVuSans-2e"/>
     <use transform="translate(158.842773 0.09375)" xlink:href="#DejaVuSans-Oblique-50"/>
     <use transform="translate(219.145508 -16.3125)scale(0.7)" xlink:href="#DejaVuSans-31"/>
    </g>
   </g>
   <g id="text_5">
    <!-- $P_{5} . P_1 $ -->
    <g transform="translate(518.636364 878)scale(0.45 -0.45)">
     <defs>
      <path d="M 691 4666 
L 3169 4666 
L 3169 4134 
L 1269 4134 
L 1269 2991 
Q 1406 3038 1543 3061 
Q 1681 3084 1819 3084 
Q 2600 3084 3056 2656 
Q 3513 2228 3513 1497 
Q 3513 744 3044 326 
Q 2575 -91 1722 -91 
Q 1428 -91 1123 -41 
Q 819 9 494 109 
L 494 744 
Q 775 591 1075 516 
Q 1375 441 1709 441 
Q 2250 441 2565 725 
Q 2881 1009 2881 1497 
Q 2881 1984 2565 2268 
Q 2250 2553 1709 2553 
Q 1456 2553 1204 2497 
Q 953 2441 691 2322 
L 691 4666 
z
" id="DejaVuSans-35" transform="scale(0.015625)"/>
     </defs>
     <use transform="translate(0 0.09375)" xlink:href="#DejaVuSans-Oblique-50"/>
     <use transform="translate(60.302734 -16.3125)scale(0.7)" xlink:href="#DejaVuSans-35"/>
     <use transform="translate(107.573242 0.09375)" xlink:href="#DejaVuSans-2e"/>
     <use transform="translate(158.842773 0.09375)" xlink:href="#DejaVuSans-Oblique-50"/>
     <use transform="translate(219.145508 -16.3125)scale(0.7)" xlink:href="#DejaVuSans-31"/>
    </g>
   </g>
   <g id="text_6">
    <!-- $P_{6} . P_1 $ -->
    <g transform="translate(955 878)scale(0.45 -0.45)">
     <defs>
      <path d="M 2113 2584 
Q 1688 2584 1439 2293 
Q 1191 2003 1191 1497 
Q 1191 994 1439 701 
Q 1688 409 2113 409 
Q 2538 409 2786 701 
Q 3034 994 3034 1497 
Q 3034 2003 2786 2293 
Q 2538 2584 2113 2584 
z
M 3366 4563 
L 3366 3988 
Q 3128 4100 2886 4159 
Q 2644 4219 2406 4219 
Q 1781 4219 1451 3797 
Q 1122 3375 1075 2522 
Q 1259 2794 1537 2939 
Q 1816 3084 2150 3084 
Q 2853 3084 3261 2657 
Q 3669 2231 3669 1497 
Q 3669 778 3244 343 
Q 2819 -91 2113 -91 
Q 1303 -91 875 529 
Q 447 1150 447 2328 
Q 447 3434 972 4092 
Q 1497 4750 2381 4750 
Q 2619 4750 2861 4703 
Q 3103 4656 3366 4563 
z
" id="DejaVuSans-36" transform="scale(0.015625)"/>
     </defs>
     <use transform="translate(0 0.09375)" xlink:href="#DejaVuSans-Oblique-50"/>
     <use transform="translate(60.302734 -16.3125)scale(0.7)" xlink:href="#DejaVuSans-36"/>
     <use transform="translate(107.573242 0.09375)" xlink:href="#DejaVuSans-2e"/>
     <use transform="translate(158.842773 0.09375)" xlink:href="#DejaVuSans-Oblique-50"/>
     <use transform="translate(219.145508 -16.3125)scale(0.7)" xlink:href="#DejaVuSans-31"/>
    </g>
   </g>
   <g id="text_7">
    <!-- $P_{7} . P_1 $ -->
    <g transform="translate(82.272727 441.636364)scale(0.45 -0.45)">
     <defs>
      <path d="M 525 4666 
L 3525 4666 
L 3525 4397 
L 1831 0 
L 1172 0 
L 2766 4134 
L 525 4134 
L 525 4666 
z
" id="DejaVuSans-37" transform="scale(0.015625)"/>
     </defs>
     <use transform="translate(0 0.09375)" xlink:href="#DejaVuSans-Oblique-50"/>
     <use transform="translate(60.302734 -16.3125)scale(0.7)" xlink:href="#DejaVuSans-37"/>
     <use transform="translate(107.573242 0.09375)" xlink:href="#DejaVuSans-2e"/>
     <use transform="translate(158.842773 0.09375)" xlink:href="#DejaVuSans-Oblique-50"/>
     <use transform="translate(219.145508 -16.3125)scale(0.7)" xlink:href="#DejaVuSans-31"/>
    </g>
   </g>
   <g id="text_8">
    <!-- $P_{8} . P_1 $ -->
    <g transform="translate(518.636364 441.636364)scale(0.45 -0.45)">
     <defs>
      <path d="M 2034 2216 
Q 1584 2216 1326 1975 
Q 1069 1734 1069 1313 
Q 1069 891 1326 650 
Q 1584 409 2034 409 
Q 2484 409 2743 651 
Q 3003 894 3003 1313 
Q 3003 1734 2745 1975 
Q 2488 2216 2034 2216 
z
M 1403 2484 
Q 997 2584 770 2862 
Q 544 3141 544 3541 
Q 544 4100 942 4425 
Q 1341 4750 2034 4750 
Q 2731 4750 3128 4425 
Q 3525 4100 3525 3541 
Q 3525 3141 3298 2862 
Q 3072 2584 2669 2484 
Q 3125 2378 3379 2068 
Q 3634 1759 3634 1313 
Q 3634 634 3220 271 
Q 2806 -91 2034 -91 
Q 1263 -91 848 271 
Q 434 634 434 1313 
Q 434 1759 690 2068 
Q 947 2378 1403 2484 
z
M 1172 3481 
Q 1172 3119 1398 2916 
Q 1625 2713 2034 2713 
Q 2441 2713 2670 2916 
Q 2900 3119 2900 3481 
Q 2900 3844 2670 4047 
Q 2441 4250 2034 4250 
Q 1625 4250 1398 4047 
Q 1172 3844 1172 3481 
z
" id="DejaVuSans-38" transform="scale(0.015625)"/>
     </defs>
     <use transform="translate(0 0.09375)" xlink:href="#DejaVuSans-Oblique-50"/>
     <use transform="translate(60.302734 -16.3125)scale(0.7)" xlink:href="#DejaVuSans-38"/>
     <use transform="translate(107.573242 0.09375)" xlink:href="#DejaVuSans-2e"/>
     <use transform="translate(158.842773 0.09375)" xlink:href="#DejaVuSans-Oblique-50"/>
     <use transform="translate(219.145508 -16.3125)scale(0.7)" xlink:href="#DejaVuSans-31"/>
    </g>
   </g>
   <g id="text_9">
    <!-- $P_{9} . P_1 $ -->
    <g transform="translate(955 441.636364)scale(0.45 -0.45)">
     <defs>
      <path d="M 703 97 
L 703 672 
Q 941 559 1184 500 
Q 1428 441 1663 441 
Q 2288 441 2617 861 
Q 2947 1281 2994 2138 
Q 2813 1869 2534 1725 
Q 2256 1581 1919 1581 
Q 1219 1581 811 2004 
Q 403 2428 403 3163 
Q 403 3881 828 4315 
Q 1253 4750 1959 4750 
Q 2769 4750 3195 4129 
Q 3622 3509 3622 2328 
Q 3622 1225 3098 567 
Q 2575 -91 1691 -91 
Q 1453 -91 1209 -44 
Q 966 3 703 97 
z
M 1959 2075 
Q 2384 2075 2632 2365 
Q 2881 2656 2881 3163 
Q 2881 3666 2632 3958 
Q 2384 4250 1959 4250 
Q 1534 4250 1286 3958 
Q 1038 3666 1038 3163 
Q 1038 2656 1286 2365 
Q 1534 2075 1959 2075 
z
" id="DejaVuSans-39" transform="scale(0.015625)"/>
     </defs>
     <use transform="translate(0 0.09375)" xlink:href="#DejaVuSans-Oblique-50"/>
     <use transform="translate(60.302734 -16.3125)scale(0.7)" xlink:href="#DejaVuSans-39"/>
     <use transform="translate(107.573242 0.09375)" xlink:href="#DejaVuSans-2e"/>
     <use transform="translate(158.842773 0.09375)" xlink:href="#DejaVuSans-Oblique-50"/>
     <use transform="translate(219.145508 -16.3125)scale(0.7)" xlink:href="#DejaVuSans-31"/>
    </g>
   </g>
   <g id="text_10">
    <!-- $P_{1} . P_2 $ -->
    <g transform="translate(227.727273 1314.363636)scale(0.45 -0.45)">
     <use transform="translate(0 0.09375)" xlink:href="#DejaVuSans-Oblique-50"/>
     <use transform="translate(60.302734 -16.3125)scale(0.7)" xlink:href="#DejaVuSans-31"/>
     <use transform="translate(107.573242 0.09375)" xlink:href="#DejaVuSans-2e"/>
     <use transform="translate(158.842773 0.09375)" xlink:href="#DejaVuSans-Oblique-50"/>
     <use transform="translate(219.145508 -16.3125)scale(0.7)" xlink:href="#DejaVuSans-32"/>
    </g>
   </g>
   <g id="text_11">
    <!-- $P_{2} . P_2 $ -->
    <g transform="translate(664.090909 1314.363636)scale(0.45 -0.45)">
     <use transform="translate(0 0.09375)" xlink:href="#DejaVuSans-Oblique-50"/>
     <use transform="translate(60.302734 -16.3125)scale(0.7)" xlink:href="#DejaVuSans-32"/>
     <use transform="translate(107.573242 0.09375)" xlink:href="#DejaVuSans-2e"/>
     <use transform="translate(158.842773 0.09375)" xlink:href="#DejaVuSans-Oblique-50"/>
     <use transform="translate(219.145508 -16.3125)scale(0.7)" xlink:href="#DejaVuSans-32"/>
    </g>
   </g>
   <g id="text_12">
    <!-- $P_{3} . P_2 $ -->
    <g transform="translate(1100.454545 1314.363636)scale(0.45 -0.45)">
     <use transform="translate(0 0.09375)" xlink:href="#DejaVuSans-Oblique-50"/>
     <use transform="translate(60.302734 -16.3125)scale(0.7)" xlink:href="#DejaVuSans-33"/>
     <use transform="translate(107.573242 0.09375)" xlink:href="#DejaVuSans-2e"/>
     <use transform="translate(158.842773 0.09375)" xlink:href="#DejaVuSans-Oblique-50"/>
     <use transform="translate(219.145508 -16.3125)scale(0.7)" xlink:href="#DejaVuSans-32"/>
    </g>
   </g>
   <g id="text_13">
    <!-- $P_{4} . P_2 $ -->
    <g transform="translate(227.727273 878)scale(0.45 -0.45)">
     <use transform="translate(0 0.09375)" xlink:href="#DejaVuSans-Oblique-50"/>
     <use transform="translate(60.302734 -16.3125)scale(0.7)" xlink:href="#DejaVuSans-34"/>
     <use transform="translate(107.573242 0.09375)" xlink:href="#DejaVuSans-2e"/>
     <use transform="translate(158.842773 0.09375)" xlink:href="#DejaVuSans-Oblique-50"/>
     <use transform="translate(219.145508 -16.3125)scale(0.7)" xlink:href="#DejaVuSans-32"/>
    </g>
   </g>
   <g id="text_14">
    <!-- $P_{5} . P_2 $ -->
    <g transform="translate(664.090909 878)scale(0.45 -0.45)">
     <use transform="translate(0 0.09375)" xlink:href="#DejaVuSans-Oblique-50"/>
     <use transform="translate(60.302734 -16.3125)scale(0.7)" xlink:href="#DejaVuSans-35"/>
     <use transform="translate(107.573242 0.09375)" xlink:href="#DejaVuSans-2e"/>
     <use transform="translate(158.842773 0.09375)" xlink:href="#DejaVuSans-Oblique-50"/>
     <use transform="translate(219.145508 -16.3125)scale(0.7)" xlink:href="#DejaVuSans-32"/>
    </g>
   </g>
   <g id="text_15">
    <!-- $P_{6} . P_2 $ -->
    <g transform="translate(1100.454545 878)scale(0.45 -0.45)">
     <use transform="translate(0 0.09375)" xlink:href="#DejaVuSans-Oblique-50"/>
     <use transform="translate(60.302734 -16.3125)scale(0.7)" xlink:href="#DejaVuSans-36"/>
     <use transform="translate(107.573242 0.09375)" xlink:href="#DejaVuSans-2e"/>
     <use transform="translate(158.842773 0.09375)" xlink:href="#DejaVuSans-Oblique-50"/>
     <use transform="translate(219.145508 -16.3125)scale(0.7)" xlink:href="#DejaVuSans-32"/>
    </g>
   </g>
   <g id="text_16">
    <!-- $P_{7} . P_2 $ -->
    <g transform="translate(227.727273 441.636364)scale(0.45 -0.45)">
     <use transform="translate(0 0.09375)" xlink:href="#DejaVuSans-Oblique-50"/>
     <use transform="translate(60.302734 -16.3125)scale(0.7)" xlink:href="#DejaVuSans-37"/>
     <use transform="translate(107.573242 0.09375)" xlink:href="#DejaVuSans-2e"/>
     <use transform="translate(158.842773 0.09375)" xlink:href="#DejaVuSans-Oblique-50"/>
     <use transform="translate(219.145508 -16.3125)scale(0.7)" xlink:href="#DejaVuSans-32"/>
    </g>
   </g>
   <g id="text_17">
    <!-- $P_{8} . P_2 $ -->
    <g transform="translate(664.090909 441.636364)scale(0.45 -0.45)">
     <use transform="translate(0 0.09375)" xlink:href="#DejaVuSans-Oblique-50"/>
     <use transform="translate(60.302734 -16.3125)scale(0.7)" xlink:href="#DejaVuSans-38"/>
     <use transform="translate(107.573242 0.09375)" xlink:href="#DejaVuSans-2e"/>
     <use transform="translate(158.842773 0.09375)" xlink:href="#DejaVuSans-Oblique-50"/>
     <use transform="translate(219.145508 -16.3125)scale(0.7)" xlink:href="#DejaVuSans-32"/>
    </g>
   </g>
   <g id="text_18">
    <!-- $P_{9} . P_2 $ -->
    <g transform="translate(1100.454545 441.636364)scale(0.45 -0.45)">
     <use transform="translate(0 0.09375)" xlink:href="#DejaVuSans-Oblique-50"/>
     <use transform="translate(60.302734 -16.3125)scale(0.7)" xlink:href="#DejaVuSans-39"/>
     <use transform="translate(107.573242 0.09375)" xlink:href="#DejaVuSans-2e"/>
     <use transform="translate(158.842773 0.09375)" xlink:href="#DejaVuSans-Oblique-50"/>
     <use transform="translate(219.145508 -16.3125)scale(0.7)" xlink:href="#DejaVuSans-32"/>
    </g>
   </g>
   <g id="text_19">
    <!-- $P_{1} . P_3 $ -->
    <g transform="translate(373.181818 1314.363636)scale(0.45 -0.45)">
     <use transform="translate(0 0.09375)" xlink:href="#DejaVuSans-Oblique-50"/>
     <use transform="translate(60.302734 -16.3125)scale(0.7)" xlink:href="#DejaVuSans-31"/>
     <use transform="translate(107.573242 0.09375)" xlink:href="#DejaVuSans-2e"/>
     <use transform="translate(158.842773 0.09375)" xlink:href="#DejaVuSans-Oblique-50"/>
     <use transform="translate(219.145508 -16.3125)scale(0.7)" xlink:href="#DejaVuSans-33"/>
    </g>
   </g>
   <g id="text_20">
    <!-- $P_{2} . P_3 $ -->
    <g transform="translate(809.545455 1314.363636)scale(0.45 -0.45)">
     <use transform="translate(0 0.09375)" xlink:href="#DejaVuSans-Oblique-50"/>
     <use transform="translate(60.302734 -16.3125)scale(0.7)" xlink:href="#DejaVuSans-32"/>
     <use transform="translate(107.573242 0.09375)" xlink:href="#DejaVuSans-2e"/>
     <use transform="translate(158.842773 0.09375)" xlink:href="#DejaVuSans-Oblique-50"/>
     <use transform="translate(219.145508 -16.3125)scale(0.7)" xlink:href="#DejaVuSans-33"/>
    </g>
   </g>
   <g id="text_21">
    <!-- $P_{3} . P_3 $ -->
    <g transform="translate(1245.909091 1314.363636)scale(0.45 -0.45)">
     <use transform="translate(0 0.09375)" xlink:href="#DejaVuSans-Oblique-50"/>
     <use transform="translate(60.302734 -16.3125)scale(0.7)" xlink:href="#DejaVuSans-33"/>
     <use transform="translate(107.573242 0.09375)" xlink:href="#DejaVuSans-2e"/>
     <use transform="translate(158.842773 0.09375)" xlink:href="#DejaVuSans-Oblique-50"/>
     <use transform="translate(219.145508 -16.3125)scale(0.7)" xlink:href="#DejaVuSans-33"/>
    </g>
   </g>
   <g id="text_22">
    <!-- $P_{4} . P_3 $ -->
    <g transform="translate(373.181818 878)scale(0.45 -0.45)">
     <use transform="translate(0 0.09375)" xlink:href="#DejaVuSans-Oblique-50"/>
     <use transform="translate(60.302734 -16.3125)scale(0.7)" xlink:href="#DejaVuSans-34"/>
     <use transform="translate(107.573242 0.09375)" xlink:href="#DejaVuSans-2e"/>
     <use transform="translate(158.842773 0.09375)" xlink:href="#DejaVuSans-Oblique-50"/>
     <use transform="translate(219.145508 -16.3125)scale(0.7)" xlink:href="#DejaVuSans-33"/>
    </g>
   </g>
   <g id="text_23">
    <!-- $P_{5} . P_3 $ -->
    <g transform="translate(809.545455 878)scale(0.45 -0.45)">
     <use transform="translate(0 0.09375)" xlink:href="#DejaVuSans-Oblique-50"/>
     <use transform="translate(60.302734 -16.3125)scale(0.7)" xlink:href="#DejaVuSans-35"/>
     <use transform="translate(107.573242 0.09375)" xlink:href="#DejaVuSans-2e"/>
     <use transform="translate(158.842773 0.09375)" xlink:href="#DejaVuSans-Oblique-50"/>
     <use transform="translate(219.145508 -16.3125)scale(0.7)" xlink:href="#DejaVuSans-33"/>
    </g>
   </g>
   <g id="text_24">
    <!-- $P_{6} . P_3 $ -->
    <g transform="translate(1245.909091 878)scale(0.45 -0.45)">
     <use transform="translate(0 0.09375)" xlink:href="#DejaVuSans-Oblique-50"/>
     <use transform="translate(60.302734 -16.3125)scale(0.7)" xlink:href="#DejaVuSans-36"/>
     <use transform="translate(107.573242 0.09375)" xlink:href="#DejaVuSans-2e"/>
     <use transform="translate(158.842773 0.09375)" xlink:href="#DejaVuSans-Oblique-50"/>
     <use transform="translate(219.145508 -16.3125)scale(0.7)" xlink:href="#DejaVuSans-33"/>
    </g>
   </g>
   <g id="text_25">
    <!-- $P_{7} . P_3 $ -->
    <g transform="translate(373.181818 441.636364)scale(0.45 -0.45)">
     <use transform="translate(0 0.09375)" xlink:href="#DejaVuSans-Oblique-50"/>
     <use transform="translate(60.302734 -16.3125)scale(0.7)" xlink:href="#DejaVuSans-37"/>
     <use transform="translate(107.573242 0.09375)" xlink:href="#DejaVuSans-2e"/>
     <use transform="translate(158.842773 0.09375)" xlink:href="#DejaVuSans-Oblique-50"/>
     <use transform="translate(219.145508 -16.3125)scale(0.7)" xlink:href="#DejaVuSans-33"/>
    </g>
   </g>
   <g id="text_26">
    <!-- $P_{8} . P_3 $ -->
    <g transform="translate(809.545455 441.636364)scale(0.45 -0.45)">
     <use transform="translate(0 0.09375)" xlink:href="#DejaVuSans-Oblique-50"/>
     <use transform="translate(60.302734 -16.3125)scale(0.7)" xlink:href="#DejaVuSans-38"/>
     <use transform="translate(107.573242 0.09375)" xlink:href="#DejaVuSans-2e"/>
     <use transform="translate(158.842773 0.09375)" xlink:href="#DejaVuSans-Oblique-50"/>
     <use transform="translate(219.145508 -16.3125)scale(0.7)" xlink:href="#DejaVuSans-33"/>
    </g>
   </g>
   <g id="text_27">
    <!-- $P_{9} . P_3 $ -->
    <g transform="translate(1245.909091 441.636364)scale(0.45 -0.45)">
     <use transform="translate(0 0.09375)" xlink:href="#DejaVuSans-Oblique-50"/>
     <use transform="translate(60.302734 -16.3125)scale(0.7)" xlink:href="#DejaVuSans-39"/>
     <use transform="translate(107.573242 0.09375)" xlink:href="#DejaVuSans-2e"/>
     <use transform="translate(158.842773 0.09375)" xlink:href="#DejaVuSans-Oblique-50"/>
     <use transform="translate(219.145508 -16.3125)scale(0.7)" xlink:href="#DejaVuSans-33"/>
    </g>
   </g>
   <g id="text_28">
    <!-- $P_{1} . P_4 $ -->
    <g transform="translate(82.272727 1168.909091)scale(0.45 -0.45)">
     <use transform="translate(0 0.09375)" xlink:href="#DejaVuSans-Oblique-50"/>
     <use transform="translate(60.302734 -16.3125)scale(0.7)" xlink:href="#DejaVuSans-31"/>
     <use transform="translate(107.573242 0.09375)" xlink:href="#DejaVuSans-2e"/>
     <use transform="translate(158.842773 0.09375)" xlink:href="#DejaVuSans-Oblique-50"/>
     <use transform="translate(219.145508 -16.3125)scale(0.7)" xlink:href="#DejaVuSans-34"/>
    </g>
   </g>
   <g id="text_29">
    <!-- $P_{2} . P_4 $ -->
    <g transform="translate(518.636364 1168.909091)scale(0.45 -0.45)">
     <use transform="translate(0 0.09375)" xlink:href="#DejaVuSans-Oblique-50"/>
     <use transform="translate(60.302734 -16.3125)scale(0.7)" xlink:href="#DejaVuSans-32"/>
     <use transform="translate(107.573242 0.09375)" xlink:href="#DejaVuSans-2e"/>
     <use transform="translate(158.842773 0.09375)" xlink:href="#DejaVuSans-Oblique-50"/>
     <use transform="translate(219.145508 -16.3125)scale(0.7)" xlink:href="#DejaVuSans-34"/>
    </g>
   </g>
   <g id="text_30">
    <!-- $P_{3} . P_4 $ -->
    <g transform="translate(955 1168.909091)scale(0.45 -0.45)">
     <use transform="translate(0 0.09375)" xlink:href="#DejaVuSans-Oblique-50"/>
     <use transform="translate(60.302734 -16.3125)scale(0.7)" xlink:href="#DejaVuSans-33"/>
     <use transform="translate(107.573242 0.09375)" xlink:href="#DejaVuSans-2e"/>
     <use transform="translate(158.842773 0.09375)" xlink:href="#DejaVuSans-Oblique-50"/>
     <use transform="translate(219.145508 -16.3125)scale(0.7)" xlink:href="#DejaVuSans-34"/>
    </g>
   </g>
   <g id="text_31">
    <!-- $P_{4} . P_4 $ -->
    <g transform="translate(82.272727 732.545455)scale(0.45 -0.45)">
     <use transform="translate(0 0.09375)" xlink:href="#DejaVuSans-Oblique-50"/>
     <use transform="translate(60.302734 -16.3125)scale(0.7)" xlink:href="#DejaVuSans-34"/>
     <use transform="translate(107.573242 0.09375)" xlink:href="#DejaVuSans-2e"/>
     <use transform="translate(158.842773 0.09375)" xlink:href="#DejaVuSans-Oblique-50"/>
     <use transform="translate(219.145508 -16.3125)scale(0.7)" xlink:href="#DejaVuSans-34"/>
    </g>
   </g>
   <g id="text_32">
    <!-- $P_{5} . P_4 $ -->
    <g transform="translate(518.636364 732.545455)scale(0.45 -0.45)">
     <use transform="translate(0 0.09375)" xlink:href="#DejaVuSans-Oblique-50"/>
     <use transform="translate(60.302734 -16.3125)scale(0.7)" xlink:href="#DejaVuSans-35"/>
     <use transform="translate(107.573242 0.09375)" xlink:href="#DejaVuSans-2e"/>
     <use transform="translate(158.842773 0.09375)" xlink:href="#DejaVuSans-Oblique-50"/>
     <use transform="translate(219.145508 -16.3125)scale(0.7)" xlink:href="#DejaVuSans-34"/>
    </g>
   </g>
   <g id="text_33">
    <!-- $P_{6} . P_4 $ -->
    <g transform="translate(955 732.545455)scale(0.45 -0.45)">
     <use transform="translate(0 0.09375)" xlink:href="#DejaVuSans-Oblique-50"/>
     <use transform="translate(60.302734 -16.3125)scale(0.7)" xlink:href="#DejaVuSans-36"/>
     <use transform="translate(107.573242 0.09375)" xlink:href="#DejaVuSans-2e"/>
     <use transform="translate(158.842773 0.09375)" xlink:href="#DejaVuSans-Oblique-50"/>
     <use transform="translate(219.145508 -16.3125)scale(0.7)" xlink:href="#DejaVuSans-34"/>
    </g>
   </g>
   <g id="text_34">
    <!-- $P_{7} . P_4 $ -->
    <g transform="translate(82.272727 296.181818)scale(0.45 -0.45)">
     <use transform="translate(0 0.09375)" xlink:href="#DejaVuSans-Oblique-50"/>
     <use transform="translate(60.302734 -16.3125)scale(0.7)" xlink:href="#DejaVuSans-37"/>
     <use transform="translate(107.573242 0.09375)" xlink:href="#DejaVuSans-2e"/>
     <use transform="translate(158.842773 0.09375)" xlink:href="#DejaVuSans-Oblique-50"/>
     <use transform="translate(219.145508 -16.3125)scale(0.7)" xlink:href="#DejaVuSans-34"/>
    </g>
   </g>
   <g id="text_35">
    <!-- $P_{8} . P_4 $ -->
    <g transform="translate(518.636364 296.181818)scale(0.45 -0.45)">
     <use transform="translate(0 0.09375)" xlink:href="#DejaVuSans-Oblique-50"/>
     <use transform="translate(60.302734 -16.3125)scale(0.7)" xlink:href="#DejaVuSans-38"/>
     <use transform="translate(107.573242 0.09375)" xlink:href="#DejaVuSans-2e"/>
     <use transform="translate(158.842773 0.09375)" xlink:href="#DejaVuSans-Oblique-50"/>
     <use transform="translate(219.145508 -16.3125)scale(0.7)" xlink:href="#DejaVuSans-34"/>
    </g>
   </g>
   <g id="text_36">
    <!-- $P_{9} . P_4 $ -->
    <g transform="translate(955 296.181818)scale(0.45 -0.45)">
     <use transform="translate(0 0.09375)" xlink:href="#DejaVuSans-Oblique-50"/>
     <use transform="translate(60.302734 -16.3125)scale(0.7)" xlink:href="#DejaVuSans-39"/>
     <use transform="translate(107.573242 0.09375)" xlink:href="#DejaVuSans-2e"/>
     <use transform="translate(158.842773 0.09375)" xlink:href="#DejaVuSans-Oblique-50"/>
     <use transform="translate(219.145508 -16.3125)scale(0.7)" xlink:href="#DejaVuSans-34"/>
    </g>
   </g>
   <g id="text_37">
    <!-- $P_{1} . P_5 $ -->
    <g transform="translate(227.727273 1168.909091)scale(0.45 -0.45)">
     <use transform="translate(0 0.09375)" xlink:href="#DejaVuSans-Oblique-50"/>
     <use transform="translate(60.302734 -16.3125)scale(0.7)" xlink:href="#DejaVuSans-31"/>
     <use transform="translate(107.573242 0.09375)" xlink:href="#DejaVuSans-2e"/>
     <use transform="translate(158.842773 0.09375)" xlink:href="#DejaVuSans-Oblique-50"/>
     <use transform="translate(219.145508 -16.3125)scale(0.7)" xlink:href="#DejaVuSans-35"/>
    </g>
   </g>
   <g id="text_38">
    <!-- $P_{2} . P_5 $ -->
    <g transform="translate(664.090909 1168.909091)scale(0.45 -0.45)">
     <use transform="translate(0 0.09375)" xlink:href="#DejaVuSans-Oblique-50"/>
     <use transform="translate(60.302734 -16.3125)scale(0.7)" xlink:href="#DejaVuSans-32"/>
     <use transform="translate(107.573242 0.09375)" xlink:href="#DejaVuSans-2e"/>
     <use transform="translate(158.842773 0.09375)" xlink:href="#DejaVuSans-Oblique-50"/>
     <use transform="translate(219.145508 -16.3125)scale(0.7)" xlink:href="#DejaVuSans-35"/>
    </g>
   </g>
   <g id="text_39">
    <!-- $P_{3} . P_5 $ -->
    <g transform="translate(1100.454545 1168.909091)scale(0.45 -0.45)">
     <use transform="translate(0 0.09375)" xlink:href="#DejaVuSans-Oblique-50"/>
     <use transform="translate(60.302734 -16.3125)scale(0.7)" xlink:href="#DejaVuSans-33"/>
     <use transform="translate(107.573242 0.09375)" xlink:href="#DejaVuSans-2e"/>
     <use transform="translate(158.842773 0.09375)" xlink:href="#DejaVuSans-Oblique-50"/>
     <use transform="translate(219.145508 -16.3125)scale(0.7)" xlink:href="#DejaVuSans-35"/>
    </g>
   </g>
   <g id="text_40">
    <!-- $P_{4} . P_5 $ -->
    <g transform="translate(227.727273 732.545455)scale(0.45 -0.45)">
     <use transform="translate(0 0.09375)" xlink:href="#DejaVuSans-Oblique-50"/>
     <use transform="translate(60.302734 -16.3125)scale(0.7)" xlink:href="#DejaVuSans-34"/>
     <use transform="translate(107.573242 0.09375)" xlink:href="#DejaVuSans-2e"/>
     <use transform="translate(158.842773 0.09375)" xlink:href="#DejaVuSans-Oblique-50"/>
     <use transform="translate(219.145508 -16.3125)scale(0.7)" xlink:href="#DejaVuSans-35"/>
    </g>
   </g>
   <g id="text_41">
    <!-- $P_{5} . P_5 $ -->
    <g transform="translate(664.090909 732.545455)scale(0.45 -0.45)">
     <use transform="translate(0 0.09375)" xlink:href="#DejaVuSans-Oblique-50"/>
     <use transform="translate(60.302734 -16.3125)scale(0.7)" xlink:href="#DejaVuSans-35"/>
     <use transform="translate(107.573242 0.09375)" xlink:href="#DejaVuSans-2e"/>
     <use transform="translate(158.842773 0.09375)" xlink:href="#DejaVuSans-Oblique-50"/>
     <use transform="translate(219.145508 -16.3125)scale(0.7)" xlink:href="#DejaVuSans-35"/>
    </g>
   </g>
   <g id="text_42">
    <!-- $P_{6} . P_5 $ -->
    <g transform="translate(1100.454545 732.545455)scale(0.45 -0.45)">
     <use transform="translate(0 0.09375)" xlink:href="#DejaVuSans-Oblique-50"/>
     <use transform="translate(60.302734 -16.3125)scale(0.7)" xlink:href="#DejaVuSans-36"/>
     <use transform="translate(107.573242 0.09375)" xlink:href="#DejaVuSans-2e"/>
     <use transform="translate(158.842773 0.09375)" xlink:href="#DejaVuSans-Oblique-50"/>
     <use transform="translate(219.145508 -16.3125)scale(0.7)" xlink:href="#DejaVuSans-35"/>
    </g>
   </g>
   <g id="text_43">
    <!-- $P_{7} . P_5 $ -->
    <g transform="translate(227.727273 296.181818)scale(0.45 -0.45)">
     <use transform="translate(0 0.09375)" xlink:href="#DejaVuSans-Oblique-50"/>
     <use transform="translate(60.302734 -16.3125)scale(0.7)" xlink:href="#DejaVuSans-37"/>
     <use transform="translate(107.573242 0.09375)" xlink:href="#DejaVuSans-2e"/>
     <use transform="translate(158.842773 0.09375)" xlink:href="#DejaVuSans-Oblique-50"/>
     <use transform="translate(219.145508 -16.3125)scale(0.7)" xlink:href="#DejaVuSans-35"/>
    </g>
   </g>
   <g id="text_44">
    <!-- $P_{8} . P_5 $ -->
    <g transform="translate(664.090909 296.181818)scale(0.45 -0.45)">
     <use transform="translate(0 0.09375)" xlink:href="#DejaVuSans-Oblique-50"/>
     <use transform="translate(60.302734 -16.3125)scale(0.7)" xlink:href="#DejaVuSans-38"/>
     <use transform="translate(107.573242 0.09375)" xlink:href="#DejaVuSans-2e"/>
     <use transform="translate(158.842773 0.09375)" xlink:href="#DejaVuSans-Oblique-50"/>
     <use transform="translate(219.145508 -16.3125)scale(0.7)" xlink:href="#DejaVuSans-35"/>
    </g>
   </g>
   <g id="text_45">
    <!-- $P_{9} . P_5 $ -->
    <g transform="translate(1100.454545 296.181818)scale(0.45 -0.45)">
     <use transform="translate(0 0.09375)" xlink:href="#DejaVuSans-Oblique-50"/>
     <use transform="translate(60.302734 -16.3125)scale(0.7)" xlink:href="#DejaVuSans-39"/>
     <use transform="translate(107.573242 0.09375)" xlink:href="#DejaVuSans-2e"/>
     <use transform="translate(158.842773 0.09375)" xlink:href="#DejaVuSans-Oblique-50"/>
     <use transform="translate(219.145508 -16.3125)scale(0.7)" xlink:href="#DejaVuSans-35"/>
    </g>
   </g>
   <g id="text_46">
    <!-- $P_{1} . P_6 $ -->
    <g transform="translate(373.181818 1168.909091)scale(0.45 -0.45)">
     <use transform="translate(0 0.09375)" xlink:href="#DejaVuSans-Oblique-50"/>
     <use transform="translate(60.302734 -16.3125)scale(0.7)" xlink:href="#DejaVuSans-31"/>
     <use transform="translate(107.573242 0.09375)" xlink:href="#DejaVuSans-2e"/>
     <use transform="translate(158.842773 0.09375)" xlink:href="#DejaVuSans-Oblique-50"/>
     <use transform="translate(219.145508 -16.3125)scale(0.7)" xlink:href="#DejaVuSans-36"/>
    </g>
   </g>
   <g id="text_47">
    <!-- $P_{2} . P_6 $ -->
    <g transform="translate(809.545455 1168.909091)scale(0.45 -0.45)">
     <use transform="translate(0 0.09375)" xlink:href="#DejaVuSans-Oblique-50"/>
     <use transform="translate(60.302734 -16.3125)scale(0.7)" xlink:href="#DejaVuSans-32"/>
     <use transform="translate(107.573242 0.09375)" xlink:href="#DejaVuSans-2e"/>
     <use transform="translate(158.842773 0.09375)" xlink:href="#DejaVuSans-Oblique-50"/>
     <use transform="translate(219.145508 -16.3125)scale(0.7)" xlink:href="#DejaVuSans-36"/>
    </g>
   </g>
   <g id="text_48">
    <!-- $P_{3} . P_6 $ -->
    <g transform="translate(1245.909091 1168.909091)scale(0.45 -0.45)">
     <use transform="translate(0 0.09375)" xlink:href="#DejaVuSans-Oblique-50"/>
     <use transform="translate(60.302734 -16.3125)scale(0.7)" xlink:href="#DejaVuSans-33"/>
     <use transform="translate(107.573242 0.09375)" xlink:href="#DejaVuSans-2e"/>
     <use transform="translate(158.842773 0.09375)" xlink:href="#DejaVuSans-Oblique-50"/>
     <use transform="translate(219.145508 -16.3125)scale(0.7)" xlink:href="#DejaVuSans-36"/>
    </g>
   </g>
   <g id="text_49">
    <!-- $P_{4} . P_6 $ -->
    <g transform="translate(373.181818 732.545455)scale(0.45 -0.45)">
     <use transform="translate(0 0.09375)" xlink:href="#DejaVuSans-Oblique-50"/>
     <use transform="translate(60.302734 -16.3125)scale(0.7)" xlink:href="#DejaVuSans-34"/>
     <use transform="translate(107.573242 0.09375)" xlink:href="#DejaVuSans-2e"/>
     <use transform="translate(158.842773 0.09375)" xlink:href="#DejaVuSans-Oblique-50"/>
     <use transform="translate(219.145508 -16.3125)scale(0.7)" xlink:href="#DejaVuSans-36"/>
    </g>
   </g>
   <g id="text_50">
    <!-- $P_{5} . P_6 $ -->
    <g transform="translate(809.545455 732.545455)scale(0.45 -0.45)">
     <use transform="translate(0 0.09375)" xlink:href="#DejaVuSans-Oblique-50"/>
     <use transform="translate(60.302734 -16.3125)scale(0.7)" xlink:href="#DejaVuSans-35"/>
     <use transform="translate(107.573242 0.09375)" xlink:href="#DejaVuSans-2e"/>
     <use transform="translate(158.842773 0.09375)" xlink:href="#DejaVuSans-Oblique-50"/>
     <use transform="translate(219.145508 -16.3125)scale(0.7)" xlink:href="#DejaVuSans-36"/>
    </g>
   </g>
   <g id="text_51">
    <!-- $P_{6} . P_6 $ -->
    <g transform="translate(1245.909091 732.545455)scale(0.45 -0.45)">
     <use transform="translate(0 0.09375)" xlink:href="#DejaVuSans-Oblique-50"/>
     <use transform="translate(60.302734 -16.3125)scale(0.7)" xlink:href="#DejaVuSans-36"/>
     <use transform="translate(107.573242 0.09375)" xlink:href="#DejaVuSans-2e"/>
     <use transform="translate(158.842773 0.09375)" xlink:href="#DejaVuSans-Oblique-50"/>
     <use transform="translate(219.145508 -16.3125)scale(0.7)" xlink:href="#DejaVuSans-36"/>
    </g>
   </g>
   <g id="text_52">
    <!-- $P_{7} . P_6 $ -->
    <g transform="translate(373.181818 296.181818)scale(0.45 -0.45)">
     <use transform="translate(0 0.09375)" xlink:href="#DejaVuSans-Oblique-50"/>
     <use transform="translate(60.302734 -16.3125)scale(0.7)" xlink:href="#DejaVuSans-37"/>
     <use transform="translate(107.573242 0.09375)" xlink:href="#DejaVuSans-2e"/>
     <use transform="translate(158.842773 0.09375)" xlink:href="#DejaVuSans-Oblique-50"/>
     <use transform="translate(219.145508 -16.3125)scale(0.7)" xlink:href="#DejaVuSans-36"/>
    </g>
   </g>
   <g id="text_53">
    <!-- $P_{8} . P_6 $ -->
    <g transform="translate(809.545455 296.181818)scale(0.45 -0.45)">
     <use transform="translate(0 0.09375)" xlink:href="#DejaVuSans-Oblique-50"/>
     <use transform="translate(60.302734 -16.3125)scale(0.7)" xlink:href="#DejaVuSans-38"/>
     <use transform="translate(107.573242 0.09375)" xlink:href="#DejaVuSans-2e"/>
     <use transform="translate(158.842773 0.09375)" xlink:href="#DejaVuSans-Oblique-50"/>
     <use transform="translate(219.145508 -16.3125)scale(0.7)" xlink:href="#DejaVuSans-36"/>
    </g>
   </g>
   <g id="text_54">
    <!-- $P_{9} . P_6 $ -->
    <g transform="translate(1245.909091 296.181818)scale(0.45 -0.45)">
     <use transform="translate(0 0.09375)" xlink:href="#DejaVuSans-Oblique-50"/>
     <use transform="translate(60.302734 -16.3125)scale(0.7)" xlink:href="#DejaVuSans-39"/>
     <use transform="translate(107.573242 0.09375)" xlink:href="#DejaVuSans-2e"/>
     <use transform="translate(158.842773 0.09375)" xlink:href="#DejaVuSans-Oblique-50"/>
     <use transform="translate(219.145508 -16.3125)scale(0.7)" xlink:href="#DejaVuSans-36"/>
    </g>
   </g>
   <g id="text_55">
    <!-- $P_{1} . P_7 $ -->
    <g transform="translate(82.272727 1023.454545)scale(0.45 -0.45)">
     <use transform="translate(0 0.09375)" xlink:href="#DejaVuSans-Oblique-50"/>
     <use transform="translate(60.302734 -16.3125)scale(0.7)" xlink:href="#DejaVuSans-31"/>
     <use transform="translate(107.573242 0.09375)" xlink:href="#DejaVuSans-2e"/>
     <use transform="translate(158.842773 0.09375)" xlink:href="#DejaVuSans-Oblique-50"/>
     <use transform="translate(219.145508 -16.3125)scale(0.7)" xlink:href="#DejaVuSans-37"/>
    </g>
   </g>
   <g id="text_56">
    <!-- $P_{2} . P_7 $ -->
    <g transform="translate(518.636364 1023.454545)scale(0.45 -0.45)">
     <use transform="translate(0 0.09375)" xlink:href="#DejaVuSans-Oblique-50"/>
     <use transform="translate(60.302734 -16.3125)scale(0.7)" xlink:href="#DejaVuSans-32"/>
     <use transform="translate(107.573242 0.09375)" xlink:href="#DejaVuSans-2e"/>
     <use transform="translate(158.842773 0.09375)" xlink:href="#DejaVuSans-Oblique-50"/>
     <use transform="translate(219.145508 -16.3125)scale(0.7)" xlink:href="#DejaVuSans-37"/>
    </g>
   </g>
   <g id="text_57">
    <!-- $P_{3} . P_7 $ -->
    <g transform="translate(955 1023.454545)scale(0.45 -0.45)">
     <use transform="translate(0 0.09375)" xlink:href="#DejaVuSans-Oblique-50"/>
     <use transform="translate(60.302734 -16.3125)scale(0.7)" xlink:href="#DejaVuSans-33"/>
     <use transform="translate(107.573242 0.09375)" xlink:href="#DejaVuSans-2e"/>
     <use transform="translate(158.842773 0.09375)" xlink:href="#DejaVuSans-Oblique-50"/>
     <use transform="translate(219.145508 -16.3125)scale(0.7)" xlink:href="#DejaVuSans-37"/>
    </g>
   </g>
   <g id="text_58">
    <!-- $P_{4} . P_7 $ -->
    <g transform="translate(82.272727 587.090909)scale(0.45 -0.45)">
     <use transform="translate(0 0.09375)" xlink:href="#DejaVuSans-Oblique-50"/>
     <use transform="translate(60.302734 -16.3125)scale(0.7)" xlink:href="#DejaVuSans-34"/>
     <use transform="translate(107.573242 0.09375)" xlink:href="#DejaVuSans-2e"/>
     <use transform="translate(158.842773 0.09375)" xlink:href="#DejaVuSans-Oblique-50"/>
     <use transform="translate(219.145508 -16.3125)scale(0.7)" xlink:href="#DejaVuSans-37"/>
    </g>
   </g>
   <g id="text_59">
    <!-- $P_{5} . P_7 $ -->
    <g transform="translate(518.636364 587.090909)scale(0.45 -0.45)">
     <use transform="translate(0 0.09375)" xlink:href="#DejaVuSans-Oblique-50"/>
     <use transform="translate(60.302734 -16.3125)scale(0.7)" xlink:href="#DejaVuSans-35"/>
     <use transform="translate(107.573242 0.09375)" xlink:href="#DejaVuSans-2e"/>
     <use transform="translate(158.842773 0.09375)" xlink:href="#DejaVuSans-Oblique-50"/>
     <use transform="translate(219.145508 -16.3125)scale(0.7)" xlink:href="#DejaVuSans-37"/>
    </g>
   </g>
   <g id="text_60">
    <!-- $P_{6} . P_7 $ -->
    <g transform="translate(955 587.090909)scale(0.45 -0.45)">
     <use transform="translate(0 0.09375)" xlink:href="#DejaVuSans-Oblique-50"/>
     <use transform="translate(60.302734 -16.3125)scale(0.7)" xlink:href="#DejaVuSans-36"/>
     <use transform="translate(107.573242 0.09375)" xlink:href="#DejaVuSans-2e"/>
     <use transform="translate(158.842773 0.09375)" xlink:href="#DejaVuSans-Oblique-50"/>
     <use transform="translate(219.145508 -16.3125)scale(0.7)" xlink:href="#DejaVuSans-37"/>
    </g>
   </g>
   <g id="text_61">
    <!-- $P_{7} . P_7 $ -->
    <g transform="translate(82.272727 150.727273)scale(0.45 -0.45)">
     <use transform="translate(0 0.09375)" xlink:href="#DejaVuSans-Oblique-50"/>
     <use transform="translate(60.302734 -16.3125)scale(0.7)" xlink:href="#DejaVuSans-37"/>
     <use transform="translate(107.573242 0.09375)" xlink:href="#DejaVuSans-2e"/>
     <use transform="translate(158.842773 0.09375)" xlink:href="#DejaVuSans-Oblique-50"/>
     <use transform="translate(219.145508 -16.3125)scale(0.7)" xlink:href="#DejaVuSans-37"/>
    </g>
   </g>
   <g id="text_62">
    <!-- $P_{8} . P_7 $ -->
    <g transform="translate(518.636364 150.727273)scale(0.45 -0.45)">
     <use transform="translate(0 0.09375)" xlink:href="#DejaVuSans-Oblique-50"/>
     <use transform="translate(60.302734 -16.3125)scale(0.7)" xlink:href="#DejaVuSans-38"/>
     <use transform="translate(107.573242 0.09375)" xlink:href="#DejaVuSans-2e"/>
     <use transform="translate(158.842773 0.09375)" xlink:href="#DejaVuSans-Oblique-50"/>
     <use transform="translate(219.145508 -16.3125)scale(0.7)" xlink:href="#DejaVuSans-37"/>
    </g>
   </g>
   <g id="text_63">
    <!-- $P_{9} . P_7 $ -->
    <g transform="translate(955 150.727273)scale(0.45 -0.45)">
     <use transform="translate(0 0.09375)" xlink:href="#DejaVuSans-Oblique-50"/>
     <use transform="translate(60.302734 -16.3125)scale(0.7)" xlink:href="#DejaVuSans-39"/>
     <use transform="translate(107.573242 0.09375)" xlink:href="#DejaVuSans-2e"/>
     <use transform="translate(158.842773 0.09375)" xlink:href="#DejaVuSans-Oblique-50"/>
     <use transform="translate(219.145508 -16.3125)scale(0.7)" xlink:href="#DejaVuSans-37"/>
    </g>
   </g>
   <g id="text_64">
    <!-- $P_{1} . P_8 $ -->
    <g transform="translate(227.727273 1023.454545)scale(0.45 -0.45)">
     <use transform="translate(0 0.09375)" xlink:href="#DejaVuSans-Oblique-50"/>
     <use transform="translate(60.302734 -16.3125)scale(0.7)" xlink:href="#DejaVuSans-31"/>
     <use transform="translate(107.573242 0.09375)" xlink:href="#DejaVuSans-2e"/>
     <use transform="translate(158.842773 0.09375)" xlink:href="#DejaVuSans-Oblique-50"/>
     <use transform="translate(219.145508 -16.3125)scale(0.7)" xlink:href="#DejaVuSans-38"/>
    </g>
   </g>
   <g id="text_65">
    <!-- $P_{2} . P_8 $ -->
    <g transform="translate(664.090909 1023.454545)scale(0.45 -0.45)">
     <use transform="translate(0 0.09375)" xlink:href="#DejaVuSans-Oblique-50"/>
     <use transform="translate(60.302734 -16.3125)scale(0.7)" xlink:href="#DejaVuSans-32"/>
     <use transform="translate(107.573242 0.09375)" xlink:href="#DejaVuSans-2e"/>
     <use transform="translate(158.842773 0.09375)" xlink:href="#DejaVuSans-Oblique-50"/>
     <use transform="translate(219.145508 -16.3125)scale(0.7)" xlink:href="#DejaVuSans-38"/>
    </g>
   </g>
   <g id="text_66">
    <!-- $P_{3} . P_8 $ -->
    <g transform="translate(1100.454545 1023.454545)scale(0.45 -0.45)">
     <use transform="translate(0 0.09375)" xlink:href="#DejaVuSans-Oblique-50"/>
     <use transform="translate(60.302734 -16.3125)scale(0.7)" xlink:href="#DejaVuSans-33"/>
     <use transform="translate(107.573242 0.09375)" xlink:href="#DejaVuSans-2e"/>
     <use transform="translate(158.842773 0.09375)" xlink:href="#DejaVuSans-Oblique-50"/>
     <use transform="translate(219.145508 -16.3125)scale(0.7)" xlink:href="#DejaVuSans-38"/>
    </g>
   </g>
   <g id="text_67">
    <!-- $P_{4} . P_8 $ -->
    <g transform="translate(227.727273 587.090909)scale(0.45 -0.45)">
     <use transform="translate(0 0.09375)" xlink:href="#DejaVuSans-Oblique-50"/>
     <use transform="translate(60.302734 -16.3125)scale(0.7)" xlink:href="#DejaVuSans-34"/>
     <use transform="translate(107.573242 0.09375)" xlink:href="#DejaVuSans-2e"/>
     <use transform="translate(158.842773 0.09375)" xlink:href="#DejaVuSans-Oblique-50"/>
     <use transform="translate(219.145508 -16.3125)scale(0.7)" xlink:href="#DejaVuSans-38"/>
    </g>
   </g>
   <g id="text_68">
    <!-- $P_{5} . P_8 $ -->
    <g transform="translate(664.090909 587.090909)scale(0.45 -0.45)">
     <use transform="translate(0 0.09375)" xlink:href="#DejaVuSans-Oblique-50"/>
     <use transform="translate(60.302734 -16.3125)scale(0.7)" xlink:href="#DejaVuSans-35"/>
     <use transform="translate(107.573242 0.09375)" xlink:href="#DejaVuSans-2e"/>
     <use transform="translate(158.842773 0.09375)" xlink:href="#DejaVuSans-Oblique-50"/>
     <use transform="translate(219.145508 -16.3125)scale(0.7)" xlink:href="#DejaVuSans-38"/>
    </g>
   </g>
   <g id="text_69">
    <!-- $P_{6} . P_8 $ -->
    <g transform="translate(1100.454545 587.090909)scale(0.45 -0.45)">
     <use transform="translate(0 0.09375)" xlink:href="#DejaVuSans-Oblique-50"/>
     <use transform="translate(60.302734 -16.3125)scale(0.7)" xlink:href="#DejaVuSans-36"/>
     <use transform="translate(107.573242 0.09375)" xlink:href="#DejaVuSans-2e"/>
     <use transform="translate(158.842773 0.09375)" xlink:href="#DejaVuSans-Oblique-50"/>
     <use transform="translate(219.145508 -16.3125)scale(0.7)" xlink:href="#DejaVuSans-38"/>
    </g>
   </g>
   <g id="text_70">
    <!-- $P_{7} . P_8 $ -->
    <g transform="translate(227.727273 150.727273)scale(0.45 -0.45)">
     <use transform="translate(0 0.09375)" xlink:href="#DejaVuSans-Oblique-50"/>
     <use transform="translate(60.302734 -16.3125)scale(0.7)" xlink:href="#DejaVuSans-37"/>
     <use transform="translate(107.573242 0.09375)" xlink:href="#DejaVuSans-2e"/>
     <use transform="translate(158.842773 0.09375)" xlink:href="#DejaVuSans-Oblique-50"/>
     <use transform="translate(219.145508 -16.3125)scale(0.7)" xlink:href="#DejaVuSans-38"/>
    </g>
   </g>
   <g id="text_71">
    <!-- $P_{8} . P_8 $ -->
    <g transform="translate(664.090909 150.727273)scale(0.45 -0.45)">
     <use transform="translate(0 0.09375)" xlink:href="#DejaVuSans-Oblique-50"/>
     <use transform="translate(60.302734 -16.3125)scale(0.7)" xlink:href="#DejaVuSans-38"/>
     <use transform="translate(107.573242 0.09375)" xlink:href="#DejaVuSans-2e"/>
     <use transform="translate(158.842773 0.09375)" xlink:href="#DejaVuSans-Oblique-50"/>
     <use transform="translate(219.145508 -16.3125)scale(0.7)" xlink:href="#DejaVuSans-38"/>
    </g>
   </g>
   <g id="text_72">
    <!-- $P_{9} . P_8 $ -->
    <g transform="translate(1100.454545 150.727273)scale(0.45 -0.45)">
     <use transform="translate(0 0.09375)" xlink:href="#DejaVuSans-Oblique-50"/>
     <use transform="translate(60.302734 -16.3125)scale(0.7)" xlink:href="#DejaVuSans-39"/>
     <use transform="translate(107.573242 0.09375)" xlink:href="#DejaVuSans-2e"/>
     <use transform="translate(158.842773 0.09375)" xlink:href="#DejaVuSans-Oblique-50"/>
     <use transform="translate(219.145508 -16.3125)scale(0.7)" xlink:href="#DejaVuSans-38"/>
    </g>
   </g>
   <g id="text_73">
    <!-- $P_{1} . P_9 $ -->
    <g transform="translate(373.181818 1023.454545)scale(0.45 -0.45)">
     <use transform="translate(0 0.09375)" xlink:href="#DejaVuSans-Oblique-50"/>
     <use transform="translate(60.302734 -16.3125)scale(0.7)" xlink:href="#DejaVuSans-31"/>
     <use transform="translate(107.573242 0.09375)" xlink:href="#DejaVuSans-2e"/>
     <use transform="translate(158.842773 0.09375)" xlink:href="#DejaVuSans-Oblique-50"/>
     <use transform="translate(219.145508 -16.3125)scale(0.7)" xlink:href="#DejaVuSans-39"/>
    </g>
   </g>
   <g id="text_74">
    <!-- $P_{2} . P_9 $ -->
    <g transform="translate(809.545455 1023.454545)scale(0.45 -0.45)">
     <use transform="translate(0 0.09375)" xlink:href="#DejaVuSans-Oblique-50"/>
     <use transform="translate(60.302734 -16.3125)scale(0.7)" xlink:href="#DejaVuSans-32"/>
     <use transform="translate(107.573242 0.09375)" xlink:href="#DejaVuSans-2e"/>
     <use transform="translate(158.842773 0.09375)" xlink:href="#DejaVuSans-Oblique-50"/>
     <use transform="translate(219.145508 -16.3125)scale(0.7)" xlink:href="#DejaVuSans-39"/>
    </g>
   </g>
   <g id="text_75">
    <!-- $P_{3} . P_9 $ -->
    <g transform="translate(1245.909091 1023.454545)scale(0.45 -0.45)">
     <use transform="translate(0 0.09375)" xlink:href="#DejaVuSans-Oblique-50"/>
     <use transform="translate(60.302734 -16.3125)scale(0.7)" xlink:href="#DejaVuSans-33"/>
     <use transform="translate(107.573242 0.09375)" xlink:href="#DejaVuSans-2e"/>
     <use transform="translate(158.842773 0.09375)" xlink:href="#DejaVuSans-Oblique-50"/>
     <use transform="translate(219.145508 -16.3125)scale(0.7)" xlink:href="#DejaVuSans-39"/>
    </g>
   </g>
   <g id="text_76">
    <!-- $P_{4} . P_9 $ -->
    <g transform="translate(373.181818 587.090909)scale(0.45 -0.45)">
     <use transform="translate(0 0.09375)" xlink:href="#DejaVuSans-Oblique-50"/>
     <use transform="translate(60.302734 -16.3125)scale(0.7)" xlink:href="#DejaVuSans-34"/>
     <use transform="translate(107.573242 0.09375)" xlink:href="#DejaVuSans-2e"/>
     <use transform="translate(158.842773 0.09375)" xlink:href="#DejaVuSans-Oblique-50"/>
     <use transform="translate(219.145508 -16.3125)scale(0.7)" xlink:href="#DejaVuSans-39"/>
    </g>
   </g>
   <g id="text_77">
    <!-- $P_{5} . P_9 $ -->
    <g transform="translate(809.545455 587.090909)scale(0.45 -0.45)">
     <use transform="translate(0 0.09375)" xlink:href="#DejaVuSans-Oblique-50"/>
     <use transform="translate(60.302734 -16.3125)scale(0.7)" xlink:href="#DejaVuSans-35"/>
     <use transform="translate(107.573242 0.09375)" xlink:href="#DejaVuSans-2e"/>
     <use transform="translate(158.842773 0.09375)" xlink:href="#DejaVuSans-Oblique-50"/>
     <use transform="translate(219.145508 -16.3125)scale(0.7)" xlink:href="#DejaVuSans-39"/>
    </g>
   </g>
   <g id="text_78">
    <!-- $P_{6} . P_9 $ -->
    <g transform="translate(1245.909091 587.090909)scale(0.45 -0.45)">
     <use transform="translate(0 0.09375)" xlink:href="#DejaVuSans-Oblique-50"/>
     <use transform="translate(60.302734 -16.3125)scale(0.7)" xlink:href="#DejaVuSans-36"/>
     <use transform="translate(107.573242 0.09375)" xlink:href="#DejaVuSans-2e"/>
     <use transform="translate(158.842773 0.09375)" xlink:href="#DejaVuSans-Oblique-50"/>
     <use transform="translate(219.145508 -16.3125)scale(0.7)" xlink:href="#DejaVuSans-39"/>
    </g>
   </g>
   <g id="text_79">
    <!-- $P_{7} . P_9 $ -->
    <g transform="translate(373.181818 150.727273)scale(0.45 -0.45)">
     <use transform="translate(0 0.09375)" xlink:href="#DejaVuSans-Oblique-50"/>
     <use transform="translate(60.302734 -16.3125)scale(0.7)" xlink:href="#DejaVuSans-37"/>
     <use transform="translate(107.573242 0.09375)" xlink:href="#DejaVuSans-2e"/>
     <use transform="translate(158.842773 0.09375)" xlink:href="#DejaVuSans-Oblique-50"/>
     <use transform="translate(219.145508 -16.3125)scale(0.7)" xlink:href="#DejaVuSans-39"/>
    </g>
   </g>
   <g id="text_80">
    <!-- $P_{8} . P_9 $ -->
    <g transform="translate(809.545455 150.727273)scale(0.45 -0.45)">
     <use transform="translate(0 0.09375)" xlink:href="#DejaVuSans-Oblique-50"/>
     <use transform="translate(60.302734 -16.3125)scale(0.7)" xlink:href="#DejaVuSans-38"/>
     <use transform="translate(107.573242 0.09375)" xlink:href="#DejaVuSans-2e"/>
     <use transform="translate(158.842773 0.09375)" xlink:href="#DejaVuSans-Oblique-50"/>
     <use transform="translate(219.145508 -16.3125)scale(0.7)" xlink:href="#DejaVuSans-39"/>
    </g>
   </g>
   <g id="text_81">
    <!-- $P_{9} . P_9 $ -->
    <g transform="translate(1245.909091 150.727273)scale(0.45 -0.45)">
     <use transform="translate(0 0.09375)" xlink:href="#DejaVuSans-Oblique-50"/>
     <use transform="translate(60.302734 -16.3125)scale(0.7)" xlink:href="#DejaVuSans-39"/>
     <use transform="translate(107.573242 0.09375)" xlink:href="#DejaVuSans-2e"/>
     <use transform="translate(158.842773 0.09375)" xlink:href="#DejaVuSans-Oblique-50"/>
     <use transform="translate(219.145508 -16.3125)scale(0.7)" xlink:href="#DejaVuSans-39"/>
    </g>
   </g>
  </g>
 </g>
 <defs>
  <clipPath id="p30c3661e5b">
   <rect height="1440" width="1440" x="0" y="0"/>
  </clipPath>
 </defs>
</svg>
